<svg width="254" height="555" viewBox="0 0 254 555" fill="none" xmlns="http://www.w3.org/2000/svg">
<path d="M-306.373 141.991C-346.038 -1.74197 -199.104 -16.3722 -93.0668 27.0276C-31.1989 49.3476 9.43076 -20.0659 86.073 7.63617C162.715 35.3382 70.8371 122.6 188.109 167.385C305.381 212.17 248.13 412.547 145.632 414.856C43.1349 417.164 71.2986 450.869 -31.1989 527.973C-133.696 605.077 -306.372 497.962 -263.434 384.845C-220.496 271.729 -263.435 297.584 -306.373 141.991Z" stroke="#35AEEF" stroke-width="0.5"/>
<path d="M-85.7737 253.851C-90.3503 240.161 -68.9142 218.076 -51.6774 227.501C-35.8933 236.132 -19.8201 230.311 -9.201 234.159C18.7551 244.289 8.47189 249.651 20.969 261.681C36.1763 276.321 43.4328 314.656 8.47189 314.656C-20.2819 314.656 -11.6784 328.621 -33.2095 334.809C-54.7405 340.997 -79.1582 330.464 -79.1582 302.733C-79.1582 292.319 -78.1513 276.651 -85.7737 253.851Z" stroke="#35AEEF" stroke-width="0.5"/>
<path d="M-286.321 151.462C-322.796 19.5509 -187.271 4.24298 -89.3068 44.5542C-31.6284 65.6297 6.76886 1.99741 77.409 27.5309C149.625 53.6354 65.1648 133.451 172.912 175.259C280.905 217.303 229.518 402.95 133.16 405.049C37.367 407.147 63.7525 439.057 -31.3844 509.714C-126.521 580.371 -285.719 482.037 -246.685 376.682C-207.65 272.902 -246.594 294.983 -286.321 151.462Z" stroke="#35AEEF" stroke-width="0.5"/>
<path d="M-266.269 160.933C-299.554 40.8443 -175.438 24.8586 -85.5468 62.0812C-32.0577 81.9123 4.10706 24.0611 68.7451 47.426C136.535 71.9331 59.4926 144.304 157.715 183.133C256.429 222.437 210.907 393.353 120.689 395.242C31.5992 397.13 56.2065 427.246 -31.5698 491.456C-119.346 555.666 -265.066 466.112 -229.935 368.52C-194.804 274.076 -229.752 292.382 -266.269 160.933Z" stroke="#35AEEF" stroke-width="0.5"/>
<path d="M-246.218 170.405C-276.313 62.1381 -163.606 45.4747 -81.787 79.6087C-32.4874 98.1953 1.44496 46.1253 60.0809 67.3216C123.445 90.2312 53.8201 155.156 142.517 191.008C231.953 227.572 192.295 383.756 108.217 385.435C25.8311 387.114 48.6602 415.435 -31.7555 473.198C-112.171 530.962 -244.413 450.187 -213.185 360.358C-181.958 275.251 -212.911 289.782 -246.218 170.405Z" stroke="#35AEEF" stroke-width="0.5"/>
<path d="M-226.165 179.877C-253.071 83.4326 -151.773 66.0915 -78.0267 97.137C-32.9166 114.479 -1.2166 68.1902 51.4173 87.2179C110.355 108.53 48.1482 166.01 127.32 198.884C207.478 232.707 173.684 374.16 95.7451 375.63C20.0636 377.099 41.1145 403.625 -31.9407 454.941C-104.996 506.258 -223.76 434.264 -196.435 352.196C-169.111 276.426 -196.07 287.182 -226.165 179.877Z" stroke="#35AEEF" stroke-width="0.5"/>
<path d="M-206.113 189.829C-229.829 105.207 -139.94 87.188 -74.2661 115.145C-33.3454 131.243 -3.87781 90.7348 42.754 107.594C97.2661 127.309 42.4766 177.343 112.124 207.24C183.003 238.322 155.073 365.044 83.274 366.303C14.2964 367.563 33.5691 392.295 -32.1255 437.164C-97.8201 482.033 -203.106 418.82 -179.685 344.514C-156.264 278.081 -179.228 285.062 -206.113 189.829Z" stroke="#35AEEF" stroke-width="0.5"/>
<path d="M-186.06 200.349C-206.586 127.549 -128.106 108.853 -70.5052 133.721C-33.7739 148.574 -6.53876 113.847 34.0909 128.538C84.1771 146.655 36.8052 189.244 96.9272 216.163C158.528 244.505 136.462 356.496 70.8031 357.545C8.52945 358.595 26.0239 381.532 -32.3101 419.955C-90.6441 458.377 -182.452 403.944 -162.935 337.401C-143.417 280.304 -162.386 283.51 -186.06 200.349Z" stroke="#35AEEF" stroke-width="0.5"/>
<path d="M-166.007 210.901C-183.343 149.923 -116.272 130.548 -66.7438 152.328C-34.202 165.937 -9.19917 136.991 25.4284 149.513C71.0885 166.033 31.1344 201.177 81.7314 225.118C134.053 250.72 117.852 347.979 58.3327 348.819C2.76303 349.658 18.4793 370.801 -32.4941 402.777C-83.4675 434.753 -161.797 389.099 -146.183 330.318C-130.57 282.558 -145.543 281.99 -166.007 210.901Z" stroke="#35AEEF" stroke-width="0.5"/>
<path d="M-145.954 221.498C-160.1 172.342 -104.437 152.29 -62.9821 170.981C-34.6297 183.345 -11.8593 160.181 16.7661 170.534C58.0003 185.456 25.4639 213.155 66.5359 234.118C109.579 256.979 99.2426 339.508 45.8626 340.138C-3.00311 340.767 10.935 360.116 -32.6779 385.645C-76.2907 411.173 -141.142 374.3 -129.432 323.282C-117.722 284.858 -128.7 280.515 -145.954 221.498Z" stroke="#35AEEF" stroke-width="0.5"/>
<path d="M-125.898 232.162C-136.855 194.828 -92.6008 174.098 -59.2185 189.7C-35.0555 200.82 -14.5175 183.437 8.1058 191.622C44.9139 204.947 19.7953 225.199 51.3423 243.185C85.1068 263.306 80.6347 331.103 33.3944 331.523C-8.7673 331.943 3.39256 349.497 -32.8597 368.579C-69.1119 387.661 -120.486 359.567 -112.679 316.311C-104.872 287.224 -111.855 279.106 -125.898 232.162Z" stroke="#35AEEF" stroke-width="0.5"/>
<path d="M-105.84 242.927C-113.606 217.415 -80.7614 196.008 -55.4519 208.522C-35.4783 218.397 -17.1727 206.795 -0.551521 212.811C31.8306 224.539 14.1297 237.346 36.1517 252.354C60.6376 269.735 62.0298 322.801 20.9292 323.011C-14.5285 323.221 -4.14685 338.98 -33.0385 351.615C-61.9301 364.25 -99.8259 344.937 -95.9224 309.443C-92.0189 289.693 -95.007 277.8 -105.84 242.927Z" stroke="#35AEEF" stroke-width="0.5"/>
</svg>
