<svg width="15" height="16" viewBox="0 0 15 16" fill="none" xmlns="http://www.w3.org/2000/svg">
<path fill-rule="evenodd" clip-rule="evenodd" d="M7.5 15.5C3.35766 15.5 0 12.1423 0 8C0 3.85766 3.35766 0.5 7.5 0.5C11.6423 0.5 15 3.85766 15 8C15 12.1423 11.6423 15.5 7.5 15.5ZM6.12188 11.6909L6.92297 12.4981C6.98292 12.5582 7.05412 12.6058 7.13251 12.6383C7.21089 12.6708 7.29491 12.6876 7.37977 12.6876C7.46462 12.6876 7.54864 12.6708 7.62703 12.6383C7.70541 12.6058 7.77661 12.5582 7.83656 12.4981L8.64234 11.6909L7.37953 10.4267L6.12188 11.6909ZM9.37969 7.35875L10.642 6.09453L9.38016 4.83031L8.11781 6.09453L9.37969 7.35875ZM9.06609 11.2789L11.9981 8.34219C12.1194 8.22073 12.1875 8.0561 12.1875 7.88445C12.1875 7.71281 12.1194 7.54818 11.9981 7.42672L11.1928 6.62L7.80375 10.0147L9.06609 11.2789ZM5.59594 11.1486L8.97937 7.75953L7.7175 6.49531L4.33406 9.88438L5.59594 11.1486ZM3.80438 9.36734L5.07234 8.10266L3.81 6.83797L3.00469 7.64516C2.88274 7.76579 2.81361 7.92987 2.81247 8.1014C2.81132 8.27293 2.87826 8.43791 2.99859 8.56016L3.80438 9.36734ZM8.85141 4.31047L8.04562 3.50187C7.98567 3.44182 7.91447 3.39418 7.83609 3.36168C7.75771 3.32917 7.67368 3.31244 7.58883 3.31244C7.50397 3.31244 7.41995 3.32917 7.34157 3.36168C7.26319 3.39418 7.19198 3.44182 7.13203 3.50187L4.2 6.43906L5.46234 7.70328L8.85141 4.31047Z" fill="#20709B"/>
</svg>
