<svg width="25" height="23" viewBox="0 0 25 23" fill="none" xmlns="http://www.w3.org/2000/svg">
<path d="M2.53122 22.0516C2.26525 22.0507 2.00256 21.9928 1.76091 21.8816C1.44644 21.7387 1.18042 21.5072 0.995339 21.2155C0.810263 20.9238 0.714144 20.5845 0.718723 20.2391V2.25C0.718723 1.7693 0.909682 1.30828 1.24959 0.968369C1.5895 0.628459 2.05052 0.4375 2.53122 0.4375H22.4687C22.9494 0.4375 23.4104 0.628459 23.7503 0.968369C24.0903 1.30828 24.2812 1.7693 24.2812 2.25V16.75C24.2812 17.2307 24.0903 17.6917 23.7503 18.0316C23.4104 18.3715 22.9494 18.5625 22.4687 18.5625H7.34567L3.69802 21.6324C3.37094 21.9058 2.9575 22.0543 2.53122 22.0516ZM2.53122 2.25V20.2391L6.17888 17.1805C6.5028 16.9003 6.91743 16.7474 7.34567 16.75H22.4687V2.25H2.53122Z" fill="#0770A8"/>
</svg>
