<svg width="21" height="16" viewBox="0 0 21 16" fill="none" xmlns="http://www.w3.org/2000/svg">
<path d="M13.8199 0.26001C13.6213 0.615697 13.4443 0.983029 13.2899 1.36001C11.7727 1.12006 10.2272 1.12006 8.70992 1.36001C8.55551 0.983029 8.37852 0.615697 8.17992 0.26001C6.75071 0.504211 5.36132 0.941547 4.04992 1.56001C1.70486 4.9443 0.641354 9.05296 1.04992 13.15C2.57815 14.2989 4.29338 15.1751 6.11992 15.74C6.53583 15.1906 6.90702 14.6087 7.22992 14C6.63399 13.7803 6.06121 13.5023 5.51992 13.17C5.66838 13.0712 5.80881 12.9609 5.93992 12.84C7.51838 13.6003 9.24789 13.9952 10.9999 13.9952C12.7519 13.9952 14.4815 13.6003 16.0599 12.84C16.1999 12.96 16.3399 13.07 16.4799 13.17C15.9357 13.4997 15.3635 13.7807 14.7699 14.01C15.0794 14.6325 15.4407 15.228 15.8499 15.79C17.6742 15.227 19.3864 14.3506 20.9099 13.2C21.3283 9.10221 20.2639 4.99019 17.9099 1.61001C16.6132 0.978747 15.2376 0.52468 13.8199 0.26001V0.26001ZM7.67992 10.81C7.1795 10.7741 6.71246 10.5457 6.37684 10.1728C6.04122 9.79987 5.86311 9.31143 5.87992 8.81001C5.86058 8.30793 6.0378 7.81809 6.37393 7.44462C6.71005 7.07115 7.17858 6.84348 7.67992 6.81001C8.18126 6.84348 8.64978 7.07115 8.9859 7.44462C9.32203 7.81809 9.49926 8.30793 9.47992 8.81001C9.49926 9.31209 9.32203 9.80193 8.9859 10.1754C8.64978 10.5489 8.18126 10.7765 7.67992 10.81V10.81ZM14.3199 10.81C13.8195 10.7741 13.3525 10.5457 13.0168 10.1728C12.6812 9.79987 12.5031 9.31143 12.5199 8.81001C12.5006 8.30793 12.6778 7.81809 13.0139 7.44462C13.3501 7.07115 13.8186 6.84348 14.3199 6.81001C14.8222 6.84098 15.2922 7.06791 15.6289 7.44196C15.9655 7.816 16.1418 8.30726 16.1199 8.81001C16.1418 9.31276 15.9655 9.80402 15.6289 10.1781C15.2922 10.5521 14.8222 10.779 14.3199 10.81V10.81Z" fill="#20709B"/>
</svg>
