<svg width="21" height="22" viewBox="0 0 21 22" fill="none" xmlns="http://www.w3.org/2000/svg">
<path d="M10.5 8.26638C8.9947 8.26638 7.76629 9.4948 7.76629 11.0001C7.76629 12.5053 8.9947 13.7338 10.5 13.7338C12.0053 13.7338 13.2337 12.5053 13.2337 11.0001C13.2337 9.4948 12.0053 8.26638 10.5 8.26638ZM18.699 11.0001C18.699 9.86804 18.7093 8.74626 18.6457 7.61628C18.5821 6.30378 18.2827 5.13894 17.3229 4.17917C16.3611 3.21736 15.1983 2.91999 13.8858 2.85642C12.7538 2.79285 11.632 2.8031 10.502 2.8031C9.37 2.8031 8.24822 2.79285 7.11824 2.85642C5.80574 2.91999 4.64089 3.21941 3.68113 4.17917C2.71931 5.14099 2.42195 6.30378 2.35837 7.61628C2.2948 8.74831 2.30505 9.87009 2.30505 11.0001C2.30505 12.1301 2.2948 13.2539 2.35837 14.3839C2.42195 15.6964 2.72136 16.8612 3.68113 17.821C4.64294 18.7828 5.80574 19.0801 7.11824 19.1437C8.25027 19.2073 9.37205 19.197 10.502 19.197C11.6341 19.197 12.7558 19.2073 13.8858 19.1437C15.1983 19.0801 16.3632 18.7807 17.3229 17.821C18.2847 16.8592 18.5821 15.6964 18.6457 14.3839C18.7113 13.2539 18.699 12.1321 18.699 11.0001V11.0001ZM10.5 15.2062C8.17234 15.2062 6.29382 13.3277 6.29382 11.0001C6.29382 8.67243 8.17234 6.79392 10.5 6.79392C12.8276 6.79392 14.7061 8.67243 14.7061 11.0001C14.7061 13.3277 12.8276 15.2062 10.5 15.2062ZM14.8784 7.60398C14.3349 7.60398 13.8961 7.16511 13.8961 6.62165C13.8961 6.0782 14.3349 5.63933 14.8784 5.63933C15.4219 5.63933 15.8607 6.0782 15.8607 6.62165C15.8609 6.7507 15.8356 6.87851 15.7863 6.99776C15.737 7.11702 15.6646 7.22537 15.5734 7.31662C15.4821 7.40787 15.3738 7.48022 15.2545 7.52953C15.1353 7.57884 15.0074 7.60414 14.8784 7.60398V7.60398Z" fill="#20709B"/>
</svg>
