<svg width="17" height="18" viewBox="0 0 17 18" fill="none" xmlns="http://www.w3.org/2000/svg">
<path d="M8.50022 6.26638C6.99495 6.26638 5.76653 7.4948 5.76653 9.00007C5.76653 10.5053 6.99495 11.7338 8.50022 11.7338C10.0055 11.7338 11.2339 10.5053 11.2339 9.00007C11.2339 7.4948 10.0055 6.26638 8.50022 6.26638ZM16.6992 9.00007C16.6992 7.86804 16.7095 6.74626 16.6459 5.61628C16.5824 4.30378 16.2829 3.13894 15.3232 2.17917C14.3614 1.21736 13.1986 0.919995 11.8861 0.85642C10.754 0.792846 9.63225 0.8031 8.50227 0.8031C7.37024 0.8031 6.24846 0.792846 5.11848 0.85642C3.80598 0.919995 2.64114 1.21941 1.68137 2.17917C0.719555 3.14099 0.422192 4.30378 0.358618 5.61628C0.295044 6.74831 0.305297 7.87009 0.305297 9.00007C0.305297 10.1301 0.295044 11.2539 0.358618 12.3839C0.422192 13.6964 0.721606 14.8612 1.68137 15.821C2.64319 16.7828 3.80598 17.0801 5.11848 17.1437C6.25051 17.2073 7.37229 17.197 8.50227 17.197C9.6343 17.197 10.7561 17.2073 11.8861 17.1437C13.1986 17.0801 14.3634 16.7807 15.3232 15.821C16.285 14.8591 16.5824 13.6964 16.6459 12.3839C16.7116 11.2539 16.6992 10.1321 16.6992 9.00007ZM8.50022 13.2062C6.17258 13.2062 4.29407 11.3277 4.29407 9.00007C4.29407 6.67243 6.17258 4.79392 8.50022 4.79392C10.8279 4.79392 12.7064 6.67243 12.7064 9.00007C12.7064 11.3277 10.8279 13.2062 8.50022 13.2062ZM12.8786 5.60398C12.3352 5.60398 11.8963 5.16511 11.8963 4.62165C11.8963 4.0782 12.3352 3.63933 12.8786 3.63933C13.4221 3.63933 13.861 4.0782 13.861 4.62165C13.8611 4.7507 13.8358 4.87851 13.7865 4.99776C13.7372 5.11702 13.6649 5.22537 13.5736 5.31662C13.4824 5.40787 13.374 5.48022 13.2548 5.52953C13.1355 5.57884 13.0077 5.60414 12.8786 5.60398Z" fill="#20709B"/>
</svg>
