<svg width="70" height="70" viewBox="0 0 70 70" fill="none" xmlns="http://www.w3.org/2000/svg">
<path d="M29.1665 23.3333H46.6665V27.2222H29.1665V23.3333Z" fill="#ED2E7E"/>
<path d="M29.1665 31.1111H46.6665V35H29.1665V31.1111Z" fill="#ED2E7E"/>
<path d="M29.1665 38.8889H46.6665V42.7778H29.1665V38.8889Z" fill="#ED2E7E"/>
<path d="M29.1665 46.6667H46.6665V50.5556H29.1665V46.6667Z" fill="#ED2E7E"/>
<path d="M21.3887 15.5555H25.2776V19.4444H21.3887V15.5555Z" fill="#ED2E7E"/>
<path d="M21.3887 23.3333H25.2776V27.2222H21.3887V23.3333Z" fill="#ED2E7E"/>
<path d="M21.3887 31.1111H25.2776V35H21.3887V31.1111Z" fill="#ED2E7E"/>
<path d="M21.3887 38.8889H25.2776V42.7778H21.3887V38.8889Z" fill="#ED2E7E"/>
<path d="M21.3887 46.6667H25.2776V50.5556H21.3887V46.6667Z" fill="#ED2E7E"/>
<path d="M29.1665 15.5555V19.4444H46.0054C45.2402 18.2404 44.6571 16.93 44.2748 15.5555H29.1665Z" fill="#ED2E7E"/>
<path d="M54.4443 25.7056V62.2223H15.5554V7.77781H44.2943C44.6704 6.40446 45.247 5.09407 46.0054 3.88892H15.5554C14.524 3.88892 13.5348 4.29864 12.8055 5.02795C12.0762 5.75725 11.6665 6.74641 11.6665 7.77781V62.2223C11.6665 63.2537 12.0762 64.2428 12.8055 64.9721C13.5348 65.7014 14.524 66.1111 15.5554 66.1111H54.4443C55.4757 66.1111 56.4648 65.7014 57.1941 64.9721C57.9234 64.2428 58.3332 63.2537 58.3332 62.2223V26.25C57.0182 26.2449 55.7101 26.0618 54.4443 25.7056Z" fill="#ED2E7E"/>
<path d="M58.3336 21.3889C63.703 21.3889 68.0558 17.0361 68.0558 11.6667C68.0558 6.29725 63.703 1.94446 58.3336 1.94446C52.9641 1.94446 48.6113 6.29725 48.6113 11.6667C48.6113 17.0361 52.9641 21.3889 58.3336 21.3889Z" fill="#ED2E7E"/>
</svg>
