<svg width="71" height="65" viewBox="0 0 71 65" fill="none" xmlns="http://www.w3.org/2000/svg">
<g filter="url(#filter0_d_326_1893)">
<rect x="24" y="4" width="23" height="22" rx="4" fill="white"/>
<g clip-path="url(#clip0_326_1893)">
<path d="M35.0519 9.00003C35.2484 9.00003 35.4419 9.01278 35.6219 9.04278C35.7992 9.06601 35.9741 9.10465 36.1446 9.15828C36.3156 9.21003 36.4829 9.27453 36.6501 9.35553C36.8129 9.43278 36.9801 9.52728 37.1474 9.63003C37.4301 9.81003 37.7084 9.95553 37.9919 10.0718C38.55 10.2952 39.1402 10.4281 39.7401 10.4655C40.0446 10.4873 40.3574 10.5 40.6829 10.5V13.5C40.6829 14.07 40.6101 14.61 40.4646 15.1245C40.3249 15.6317 40.1263 16.1208 39.8729 16.5818C39.6206 17.0422 39.322 17.4756 38.9819 17.8755C38.6365 18.2845 38.2626 18.6685 37.8629 19.0245C37.4579 19.3816 37.0313 19.7135 36.5856 20.0183C36.1401 20.3273 35.6901 20.6145 35.2401 20.8755L35.0601 20.9828L34.8801 20.8755C34.4175 20.6077 33.9657 20.3217 33.5256 20.0183C33.0774 19.7169 32.6507 19.3849 32.2484 19.0245C31.8489 18.6685 31.4752 18.2845 31.1301 17.8755C30.7909 17.4739 30.491 17.0407 30.2346 16.5818C29.9856 16.1187 29.7872 15.6301 29.6429 15.1245C29.4965 14.5956 29.4243 14.0489 29.4284 13.5V10.5C29.7546 10.5 30.0674 10.4873 30.3719 10.4655C30.6716 10.4447 30.9694 10.4018 31.2629 10.3373C31.5501 10.2728 31.8374 10.1873 32.1201 10.0718C32.4135 9.95336 32.6948 9.80694 32.9601 9.63453C33.2901 9.42003 33.6246 9.26178 33.9546 9.15753C34.31 9.04858 34.6802 8.99545 35.0519 9.00003V9.00003ZM39.9284 11.2373C39.3607 11.2097 38.7982 11.1148 38.2529 10.9545C37.7104 10.7927 37.1938 10.5546 36.7184 10.2473C36.4718 10.0854 36.204 9.95847 35.9226 9.87003C35.6416 9.78508 35.3493 9.74311 35.0556 9.74553C34.7598 9.74362 34.4654 9.78557 34.1819 9.87003C33.9001 9.9556 33.6326 10.0827 33.3884 10.2473C32.9122 10.5563 32.3942 10.7954 31.8501 10.9575C31.3184 11.112 30.7619 11.2065 30.1784 11.241V13.5038C30.1784 14.001 30.2429 14.4765 30.3719 14.9348C30.5033 15.389 30.6844 15.8274 30.9119 16.242C31.1421 16.6609 31.4134 17.0559 31.7219 17.421C32.0346 17.7893 32.3684 18.132 32.7284 18.4575C33.0884 18.7838 33.4656 19.0838 33.8601 19.362C34.2584 19.641 34.6574 19.8938 35.0556 20.1248C35.4634 19.8874 35.861 19.6329 36.2474 19.362C36.6445 19.0847 37.0237 18.7826 37.3829 18.4575C37.7429 18.132 38.0774 17.7893 38.3901 17.421C38.6986 17.0559 38.97 16.661 39.2001 16.242C39.4266 15.828 39.605 15.3894 39.7319 14.9348C39.8648 14.4695 39.931 13.9877 39.9284 13.5038V11.2373V11.2373Z" fill="#35AEEF"/>
<path fill-rule="evenodd" clip-rule="evenodd" d="M37.8481 12.5318L37.5181 12.2483L37.2136 12.2745L33.9436 16.1355L32.8299 14.5455L32.5299 14.4945L32.1826 14.7428L32.1309 15.0428L33.5626 17.0873L33.7254 17.1773L34.0681 17.1983L34.2436 17.1218L37.8699 12.8355L37.8481 12.5318V12.5318Z" fill="#35AEEF"/>
</g>
</g>
<defs>
<filter id="filter0_d_326_1893" x="0" y="0" width="71" height="70" filterUnits="userSpaceOnUse" color-interpolation-filters="sRGB">
<feFlood flood-opacity="0" result="BackgroundImageFix"/>
<feColorMatrix in="SourceAlpha" type="matrix" values="0 0 0 0 0 0 0 0 0 0 0 0 0 0 0 0 0 0 127 0" result="hardAlpha"/>
<feOffset dy="20"/>
<feGaussianBlur stdDeviation="12"/>
<feColorMatrix type="matrix" values="0 0 0 0 0.0666667 0 0 0 0 0.0666667 0 0 0 0 0.0666667 0 0 0 0.06 0"/>
<feBlend mode="normal" in2="BackgroundImageFix" result="effect1_dropShadow_326_1893"/>
<feBlend mode="normal" in="SourceGraphic" in2="effect1_dropShadow_326_1893" result="shape"/>
</filter>
<clipPath id="clip0_326_1893">
<rect width="12" height="12" fill="white" transform="translate(29 9)"/>
</clipPath>
</defs>
</svg>
