<svg width="57" height="39" viewBox="0 0 57 39" fill="none" xmlns="http://www.w3.org/2000/svg">
<path opacity="0.6" d="M28.5 0C21.1613 0 15.39 5.54864 14.5831 12.6307C13.031 12.8796 11.5754 13.5415 10.3703 14.5464C9.16531 15.5512 8.25569 16.8616 7.73775 18.3389C3.35587 19.5957 0 23.4851 0 28.3636C0 34.2562 4.76663 39 10.6875 39H46.3125C52.2334 39 57 34.2562 57 28.3636C57 25.2436 55.477 22.4498 53.2701 20.4963C52.8568 14.2669 47.864 9.29618 41.5815 8.97355C39.4369 3.78123 34.5171 0 28.5 0ZM28.5 3.54545C33.4198 3.54545 37.3528 6.68318 38.7422 11.1327L39.1341 12.4091H40.9688C45.8761 12.4091 49.875 16.3889 49.875 21.2727V22.1591L50.5982 22.714C51.471 23.3797 52.1802 24.2343 52.6721 25.2131C53.1641 26.1919 53.4258 27.2693 53.4375 28.3636C53.4375 32.3984 50.3666 35.4545 46.3125 35.4545H10.6875C6.63338 35.4545 3.5625 32.3984 3.5625 28.3636C3.5625 24.7827 6.14531 22.0031 9.405 21.4394L10.5753 21.2178L10.7979 20.0513C11.3323 17.6635 13.4591 15.9545 16.0312 15.9545H17.8125V14.1818C17.8125 8.20773 22.4972 3.54545 28.5 3.54545ZM28.5 13.4621L27.2175 14.68L20.0925 21.7709L22.6575 24.3236L26.7188 20.2747V31.9091H30.2812V20.2747L34.3425 24.32L36.9075 21.7673L29.7825 14.6764L28.5 13.4603V13.4621Z" fill="#20709B"/>
</svg>
