<svg width="21" height="21" viewBox="0 0 21 21" fill="none" xmlns="http://www.w3.org/2000/svg">
<path d="M10.5 19.25C11.4625 19.25 12.25 18.4625 12.25 17.5H8.75C8.75 18.4625 9.5375 19.25 10.5 19.25ZM15.75 14V9.625C15.75 6.93875 14.3237 4.69 11.8125 4.095V3.5C11.8125 2.77375 11.2262 2.1875 10.5 2.1875C9.77375 2.1875 9.1875 2.77375 9.1875 3.5V4.095C6.685 4.69 5.25 6.93 5.25 9.625V14L3.5 15.75V16.625H17.5V15.75L15.75 14ZM14 14.875H7V9.625C7 7.455 8.32125 5.6875 10.5 5.6875C12.6788 5.6875 14 7.455 14 9.625V14.875Z" fill="#0770A8"/>
</svg>
