<svg width="17" height="18" viewBox="0 0 17 18" fill="none" xmlns="http://www.w3.org/2000/svg">
<g clip-path="url(#clip0_475_1964)">
<path fill-rule="evenodd" clip-rule="evenodd" d="M8.5 17.5C3.80534 17.5 0 13.6947 0 9C0 4.30534 3.80534 0.5 8.5 0.5C13.1947 0.5 17 4.30534 17 9C17 13.6947 13.1947 17.5 8.5 17.5ZM6.93813 13.1831L7.84603 14.0979C7.91398 14.1659 7.99467 14.2199 8.08351 14.2568C8.17234 14.2936 8.26756 14.3126 8.36373 14.3126C8.4599 14.3126 8.55513 14.2936 8.64396 14.2568C8.73279 14.2199 8.81349 14.1659 8.88144 14.0979L9.79466 13.1831L8.36347 11.7503L6.93813 13.1831ZM10.6303 8.27325L12.061 6.84047L10.6308 5.40769L9.20019 6.84047L10.6303 8.27325ZM10.2749 12.7161L13.5979 9.38781C13.7353 9.25016 13.8125 9.06358 13.8125 8.86905C13.8125 8.67452 13.7353 8.48794 13.5979 8.35028L12.6852 7.436L8.84425 11.2833L10.2749 12.7161ZM6.34206 12.5684L10.1766 8.72747L8.7465 7.29469L4.91194 11.1356L6.34206 12.5684ZM4.31163 10.5497L5.74866 9.11634L4.318 7.68303L3.40531 8.59784C3.2671 8.73456 3.18876 8.92051 3.18746 9.11492C3.18617 9.30932 3.26203 9.4963 3.39841 9.63484L4.31163 10.5497ZM10.0316 4.81853L9.11837 3.90212C9.05043 3.83407 8.96973 3.78007 8.8809 3.74323C8.79207 3.70639 8.69684 3.68743 8.60067 3.68743C8.5045 3.68743 8.40928 3.70639 8.32044 3.74323C8.23161 3.78007 8.15091 3.83407 8.08297 3.90212L4.76 7.23094L6.19066 8.66372L10.0316 4.81853Z" fill="#20709B"/>
</g>
<defs>
<clipPath id="clip0_475_1964">
<rect width="17" height="17" fill="white" transform="translate(0 0.5)"/>
</clipPath>
</defs>
</svg>
