<svg width="58" height="62" viewBox="0 0 58 62" fill="none" xmlns="http://www.w3.org/2000/svg">
<path d="M53.8571 12.4H4.14286V4.96H49.7143V0H4.14286C3.0441 0 1.99035 0.52257 1.21341 1.45275C0.436478 2.38293 0 3.64453 0 4.96V57.04C0 58.3555 0.436478 59.6171 1.21341 60.5472C1.99035 61.4774 3.0441 62 4.14286 62H53.8571C54.9559 62 56.0096 61.4774 56.7866 60.5472C57.5635 59.6171 58 58.3555 58 57.04V17.36C58 16.0445 57.5635 14.7829 56.7866 13.8528C56.0096 12.9226 54.9559 12.4 53.8571 12.4ZM4.14286 57.04V17.36H53.8571V24.8H37.2857C36.187 24.8 35.1332 25.3226 34.3563 26.2528C33.5793 27.1829 33.1429 28.4445 33.1429 29.76V44.64C33.1429 45.9555 33.5793 47.2171 34.3563 48.1472C35.1332 49.0774 36.187 49.6 37.2857 49.6H53.8571V57.04H4.14286ZM53.8571 29.76V44.64H37.2857V29.76H53.8571Z" fill="#35AEEF"/>
</svg>
