<svg width="40" height="30" viewBox="0 0 40 30" fill="none" xmlns="http://www.w3.org/2000/svg">
<rect width="40" height="30" rx="15" fill="#20709B"/>
<path d="M21.012 16.696C21.4133 16.7613 21.7587 16.9107 22.048 17.144C22.3373 17.368 22.5613 17.6573 22.72 18.012C22.8787 18.3573 22.958 18.7493 22.958 19.188C22.958 19.7573 22.818 20.2567 22.538 20.686C22.2673 21.1247 21.88 21.4607 21.376 21.694C20.872 21.9367 20.284 22.058 19.612 22.058C18.9027 22.058 18.2773 21.9227 17.736 21.652C17.204 21.3907 16.7887 21.0173 16.49 20.532L17.316 19.706C17.5307 20.0793 17.82 20.378 18.184 20.602C18.5573 20.826 19.0333 20.938 19.612 20.938C20.256 20.938 20.76 20.7887 21.124 20.49C21.4973 20.2007 21.684 19.7667 21.684 19.188C21.684 18.6 21.4833 18.1333 21.082 17.788C20.69 17.4333 20.116 17.256 19.36 17.256H18.996V16.22H19.388C20.06 16.22 20.5733 16.0567 20.928 15.73C21.292 15.4033 21.474 14.9973 21.474 14.512C21.474 14.176 21.3947 13.9007 21.236 13.686C21.0773 13.4713 20.8627 13.3127 20.592 13.21C20.3213 13.098 20.0087 13.042 19.654 13.042C19.1407 13.042 18.688 13.154 18.296 13.378C17.9133 13.5927 17.6147 13.896 17.4 14.288L16.644 13.504C16.812 13.1867 17.05 12.9113 17.358 12.678C17.6753 12.4447 18.0393 12.2627 18.45 12.132C18.87 12.0013 19.3133 11.936 19.78 11.936C20.368 11.936 20.886 12.0387 21.334 12.244C21.7913 12.4493 22.146 12.7387 22.398 13.112C22.65 13.4853 22.776 13.924 22.776 14.428C22.776 14.792 22.706 15.1373 22.566 15.464C22.426 15.7813 22.2207 16.052 21.95 16.276C21.6887 16.4907 21.376 16.6307 21.012 16.696Z" fill="#C9ECFF"/>
</svg>
