<svg width="40" height="30" viewBox="0 0 40 30" fill="none" xmlns="http://www.w3.org/2000/svg">
<rect width="40" height="30" rx="15" fill="#20709B"/>
<path d="M16.602 20C16.602 19.6267 16.63 19.2767 16.686 18.95C16.7513 18.6233 16.8633 18.3107 17.022 18.012C17.19 17.7133 17.4233 17.4287 17.722 17.158C18.0207 16.878 18.408 16.6073 18.884 16.346C19.164 16.1873 19.444 16.038 19.724 15.898C20.0133 15.758 20.2793 15.6087 20.522 15.45C20.774 15.2913 20.9747 15.1187 21.124 14.932C21.2733 14.736 21.348 14.512 21.348 14.26C21.348 14.0453 21.2827 13.84 21.152 13.644C21.0307 13.4387 20.844 13.2753 20.592 13.154C20.3493 13.0233 20.046 12.958 19.682 12.958C19.402 12.958 19.1453 12.9953 18.912 13.07C18.688 13.1447 18.4827 13.2427 18.296 13.364C18.1187 13.476 17.96 13.5973 17.82 13.728C17.6893 13.8493 17.5773 13.9613 17.484 14.064L16.714 13.196C16.7887 13.112 16.9147 13 17.092 12.86C17.2693 12.7107 17.4933 12.5613 17.764 12.412C18.0347 12.2627 18.3473 12.1367 18.702 12.034C19.066 11.922 19.4627 11.866 19.892 11.866C20.4707 11.866 20.9653 11.9687 21.376 12.174C21.796 12.37 22.118 12.6407 22.342 12.986C22.566 13.322 22.678 13.7 22.678 14.12C22.678 14.484 22.5987 14.8013 22.44 15.072C22.2907 15.3427 22.0947 15.5807 21.852 15.786C21.6187 15.9913 21.3713 16.1687 21.11 16.318C20.858 16.458 20.6293 16.5793 20.424 16.682C20.004 16.8873 19.6447 17.074 19.346 17.242C19.0473 17.41 18.8 17.578 18.604 17.746C18.4173 17.9047 18.2633 18.0727 18.142 18.25C18.03 18.4273 17.946 18.6373 17.89 18.88H22.832V20H16.602Z" fill="#C9ECFF"/>
</svg>
