<svg width="19" height="20" viewBox="0 0 19 20" fill="none" xmlns="http://www.w3.org/2000/svg">
<g clip-path="url(#clip0_466_1189)">
<path fill-rule="evenodd" clip-rule="evenodd" d="M0 10.053C0 14.7761 3.43029 18.7036 7.91667 19.5V12.6386H5.54167V10H7.91667V7.88863C7.91667 5.51363 9.44696 4.19471 11.6114 4.19471C12.297 4.19471 13.0364 4.3 13.722 4.40529V6.83333H12.5083C11.347 6.83333 11.0833 7.41363 11.0833 8.15304V10H13.6167L13.1947 12.6386H11.0833V19.5C15.5697 18.7036 19 14.7769 19 10.053C19 4.79875 14.725 0.5 9.5 0.5C4.275 0.5 0 4.79875 0 10.053Z" fill="#20709B"/>
</g>
<defs>
<clipPath id="clip0_466_1189">
<rect width="19" height="19" fill="white" transform="translate(0 0.5)"/>
</clipPath>
</defs>
</svg>
