<svg width="395" height="221" viewBox="0 0 395 221" fill="none" xmlns="http://www.w3.org/2000/svg">
<rect width="395" height="221" rx="12" fill="#FFFEF9"/>
<path d="M52.024 54.2V64H50.204V59.8H45.136V64H43.316V54.2H45.136V58.246H50.204V54.2H52.024ZM57.842 64.098C57.086 64.098 56.4047 63.9347 55.798 63.608C55.1913 63.2813 54.7153 62.8287 54.37 62.25C54.034 61.662 53.866 60.9993 53.866 60.262C53.866 59.5247 54.034 58.8667 54.37 58.288C54.7153 57.7093 55.1913 57.2567 55.798 56.93C56.4047 56.6033 57.086 56.44 57.842 56.44C58.6073 56.44 59.2933 56.6033 59.9 56.93C60.5067 57.2567 60.978 57.7093 61.314 58.288C61.6593 58.8667 61.832 59.5247 61.832 60.262C61.832 60.9993 61.6593 61.662 61.314 62.25C60.978 62.8287 60.5067 63.2813 59.9 63.608C59.2933 63.9347 58.6073 64.098 57.842 64.098ZM57.842 62.6C58.486 62.6 59.018 62.3853 59.438 61.956C59.858 61.5267 60.068 60.962 60.068 60.262C60.068 59.562 59.858 58.9973 59.438 58.568C59.018 58.1387 58.486 57.924 57.842 57.924C57.198 57.924 56.666 58.1387 56.246 58.568C55.8353 58.9973 55.63 59.562 55.63 60.262C55.63 60.962 55.8353 61.5267 56.246 61.956C56.666 62.3853 57.198 62.6 57.842 62.6ZM74.9623 56.524L72.2043 64H70.5243L68.5923 58.848L66.6323 64H64.9523L62.2083 56.524H63.8603L65.8343 62.04L67.8923 56.524H69.3623L71.3783 62.068L73.4083 56.524H74.9623ZM91.6967 56.524L88.9387 64H87.2587L85.3267 58.848L83.3667 64H81.6867L78.9427 56.524H80.5947L82.5687 62.04L84.6267 56.524H86.0967L88.1127 62.068L90.1427 56.524H91.6967ZM96.0549 64.098C95.2989 64.098 94.6175 63.9347 94.0109 63.608C93.4042 63.2813 92.9282 62.8287 92.5829 62.25C92.2469 61.662 92.0789 60.9993 92.0789 60.262C92.0789 59.5247 92.2469 58.8667 92.5829 58.288C92.9282 57.7093 93.4042 57.2567 94.0109 56.93C94.6175 56.6033 95.2989 56.44 96.0549 56.44C96.8202 56.44 97.5062 56.6033 98.1129 56.93C98.7195 57.2567 99.1909 57.7093 99.5269 58.288C99.8722 58.8667 100.045 59.5247 100.045 60.262C100.045 60.9993 99.8722 61.662 99.5269 62.25C99.1909 62.8287 98.7195 63.2813 98.1129 63.608C97.5062 63.9347 96.8202 64.098 96.0549 64.098ZM96.0549 62.6C96.6989 62.6 97.2309 62.3853 97.6509 61.956C98.0709 61.5267 98.2809 60.962 98.2809 60.262C98.2809 59.562 98.0709 58.9973 97.6509 58.568C97.2309 58.1387 96.6989 57.924 96.0549 57.924C95.4109 57.924 94.8789 58.1387 94.4589 58.568C94.0482 58.9973 93.8429 59.562 93.8429 60.262C93.8429 60.962 94.0482 61.5267 94.4589 61.956C94.8789 62.3853 95.4109 62.6 96.0549 62.6ZM108.956 56.524V64H107.29V63.048C107.01 63.384 106.66 63.6453 106.24 63.832C105.82 64.0093 105.368 64.098 104.882 64.098C103.884 64.098 103.095 63.8227 102.516 63.272C101.947 62.712 101.662 61.886 101.662 60.794V56.524H103.412V60.556C103.412 61.228 103.562 61.732 103.86 62.068C104.168 62.3947 104.602 62.558 105.162 62.558C105.788 62.558 106.282 62.3667 106.646 61.984C107.02 61.592 107.206 61.032 107.206 60.304V56.524H108.956ZM111.248 53.612H112.998V64H111.248V53.612ZM122.616 53.612V64H120.936V63.034C120.647 63.3887 120.288 63.6547 119.858 63.832C119.438 64.0093 118.972 64.098 118.458 64.098C117.74 64.098 117.091 63.9393 116.512 63.622C115.943 63.3047 115.495 62.8567 115.168 62.278C114.842 61.69 114.678 61.018 114.678 60.262C114.678 59.506 114.842 58.8387 115.168 58.26C115.495 57.6813 115.943 57.2333 116.512 56.916C117.091 56.5987 117.74 56.44 118.458 56.44C118.953 56.44 119.406 56.524 119.816 56.692C120.227 56.86 120.577 57.112 120.866 57.448V53.612H122.616ZM118.668 62.6C119.088 62.6 119.466 62.5067 119.802 62.32C120.138 62.124 120.404 61.8487 120.6 61.494C120.796 61.1393 120.894 60.7287 120.894 60.262C120.894 59.7953 120.796 59.3847 120.6 59.03C120.404 58.6753 120.138 58.4047 119.802 58.218C119.466 58.022 119.088 57.924 118.668 57.924C118.248 57.924 117.87 58.022 117.534 58.218C117.198 58.4047 116.932 58.6753 116.736 59.03C116.54 59.3847 116.442 59.7953 116.442 60.262C116.442 60.7287 116.54 61.1393 116.736 61.494C116.932 61.8487 117.198 62.124 117.534 62.32C117.87 62.5067 118.248 62.6 118.668 62.6ZM135.775 56.524L132.275 64.602C131.948 65.414 131.552 65.9833 131.085 66.31C130.618 66.646 130.054 66.814 129.391 66.814C129.018 66.814 128.649 66.7533 128.285 66.632C127.921 66.5107 127.622 66.3427 127.389 66.128L128.089 64.84C128.257 64.9987 128.453 65.1247 128.677 65.218C128.91 65.3113 129.144 65.358 129.377 65.358C129.685 65.358 129.937 65.2787 130.133 65.12C130.338 64.9613 130.525 64.6953 130.693 64.322L130.819 64.028L127.557 56.524H129.377L131.729 62.054L134.095 56.524H135.775ZM140.024 64.098C139.268 64.098 138.586 63.9347 137.98 63.608C137.373 63.2813 136.897 62.8287 136.552 62.25C136.216 61.662 136.048 60.9993 136.048 60.262C136.048 59.5247 136.216 58.8667 136.552 58.288C136.897 57.7093 137.373 57.2567 137.98 56.93C138.586 56.6033 139.268 56.44 140.024 56.44C140.789 56.44 141.475 56.6033 142.082 56.93C142.688 57.2567 143.16 57.7093 143.496 58.288C143.841 58.8667 144.014 59.5247 144.014 60.262C144.014 60.9993 143.841 61.662 143.496 62.25C143.16 62.8287 142.688 63.2813 142.082 63.608C141.475 63.9347 140.789 64.098 140.024 64.098ZM140.024 62.6C140.668 62.6 141.2 62.3853 141.62 61.956C142.04 61.5267 142.25 60.962 142.25 60.262C142.25 59.562 142.04 58.9973 141.62 58.568C141.2 58.1387 140.668 57.924 140.024 57.924C139.38 57.924 138.848 58.1387 138.428 58.568C138.017 58.9973 137.812 59.562 137.812 60.262C137.812 60.962 138.017 61.5267 138.428 61.956C138.848 62.3853 139.38 62.6 140.024 62.6ZM152.925 56.524V64H151.259V63.048C150.979 63.384 150.629 63.6453 150.209 63.832C149.789 64.0093 149.336 64.098 148.851 64.098C147.852 64.098 147.064 63.8227 146.485 63.272C145.916 62.712 145.631 61.886 145.631 60.794V56.524H147.381V60.556C147.381 61.228 147.53 61.732 147.829 62.068C148.137 62.3947 148.571 62.558 149.131 62.558C149.756 62.558 150.251 62.3667 150.615 61.984C150.988 61.592 151.175 61.032 151.175 60.304V56.524H152.925ZM159.086 53.612H160.836V64H159.086V53.612ZM163.132 56.524H164.882V64H163.132V56.524ZM164.014 55.292C163.697 55.292 163.431 55.194 163.216 54.998C163.002 54.7927 162.894 54.5407 162.894 54.242C162.894 53.9433 163.002 53.696 163.216 53.5C163.431 53.2947 163.697 53.192 164.014 53.192C164.332 53.192 164.598 53.29 164.812 53.486C165.027 53.6727 165.134 53.9107 165.134 54.2C165.134 54.508 165.027 54.7693 164.812 54.984C164.607 55.1893 164.341 55.292 164.014 55.292ZM170.231 60.794L168.929 62.026V64H167.179V53.612H168.929V59.884L172.555 56.524H174.655L171.533 59.66L174.949 64H172.821L170.231 60.794ZM182.793 60.304C182.793 60.4253 182.784 60.598 182.765 60.822H176.899C177.002 61.3727 177.268 61.8113 177.697 62.138C178.136 62.4553 178.677 62.614 179.321 62.614C180.143 62.614 180.819 62.3433 181.351 61.802L182.289 62.88C181.953 63.2813 181.529 63.5847 181.015 63.79C180.502 63.9953 179.923 64.098 179.279 64.098C178.458 64.098 177.735 63.9347 177.109 63.608C176.484 63.2813 175.999 62.8287 175.653 62.25C175.317 61.662 175.149 60.9993 175.149 60.262C175.149 59.534 175.313 58.8807 175.639 58.302C175.975 57.714 176.437 57.2567 177.025 56.93C177.613 56.6033 178.276 56.44 179.013 56.44C179.741 56.44 180.39 56.6033 180.959 56.93C181.538 57.2473 181.986 57.7 182.303 58.288C182.63 58.8667 182.793 59.5387 182.793 60.304ZM179.013 57.84C178.453 57.84 177.977 58.008 177.585 58.344C177.203 58.6707 176.969 59.1093 176.885 59.66H181.127C181.053 59.1187 180.824 58.68 180.441 58.344C180.059 58.008 179.583 57.84 179.013 57.84ZM192.837 63.594C192.632 63.762 192.38 63.888 192.081 63.972C191.792 64.056 191.484 64.098 191.157 64.098C190.336 64.098 189.701 63.8833 189.253 63.454C188.805 63.0247 188.581 62.3993 188.581 61.578V57.98H187.349V56.58H188.581V54.872H190.331V56.58H192.333V57.98H190.331V61.536C190.331 61.9 190.42 62.18 190.597 62.376C190.775 62.5627 191.031 62.656 191.367 62.656C191.759 62.656 192.086 62.5533 192.347 62.348L192.837 63.594ZM197.391 64.098C196.635 64.098 195.953 63.9347 195.347 63.608C194.74 63.2813 194.264 62.8287 193.919 62.25C193.583 61.662 193.415 60.9993 193.415 60.262C193.415 59.5247 193.583 58.8667 193.919 58.288C194.264 57.7093 194.74 57.2567 195.347 56.93C195.953 56.6033 196.635 56.44 197.391 56.44C198.156 56.44 198.842 56.6033 199.449 56.93C200.055 57.2567 200.527 57.7093 200.863 58.288C201.208 58.8667 201.381 59.5247 201.381 60.262C201.381 60.9993 201.208 61.662 200.863 62.25C200.527 62.8287 200.055 63.2813 199.449 63.608C198.842 63.9347 198.156 64.098 197.391 64.098ZM197.391 62.6C198.035 62.6 198.567 62.3853 198.987 61.956C199.407 61.5267 199.617 60.962 199.617 60.262C199.617 59.562 199.407 58.9973 198.987 58.568C198.567 58.1387 198.035 57.924 197.391 57.924C196.747 57.924 196.215 58.1387 195.795 58.568C195.384 58.9973 195.179 59.562 195.179 60.262C195.179 60.962 195.384 61.5267 195.795 61.956C196.215 62.3853 196.747 62.6 197.391 62.6ZM209.233 64.098C208.627 64.098 208.034 64.0187 207.455 63.86C206.877 63.7013 206.415 63.5007 206.069 63.258L206.741 61.928C207.077 62.152 207.479 62.334 207.945 62.474C208.421 62.6047 208.888 62.67 209.345 62.67C210.391 62.67 210.913 62.3947 210.913 61.844C210.913 61.5827 210.778 61.4007 210.507 61.298C210.246 61.1953 209.821 61.0973 209.233 61.004C208.617 60.9107 208.113 60.8033 207.721 60.682C207.339 60.5607 207.003 60.3507 206.713 60.052C206.433 59.744 206.293 59.3193 206.293 58.778C206.293 58.0687 206.587 57.504 207.175 57.084C207.773 56.6547 208.575 56.44 209.583 56.44C210.097 56.44 210.61 56.5007 211.123 56.622C211.637 56.734 212.057 56.888 212.383 57.084L211.711 58.414C211.077 58.0407 210.363 57.854 209.569 57.854C209.056 57.854 208.664 57.9333 208.393 58.092C208.132 58.2413 208.001 58.442 208.001 58.694C208.001 58.974 208.141 59.1747 208.421 59.296C208.711 59.408 209.154 59.5153 209.751 59.618C210.349 59.7113 210.839 59.8187 211.221 59.94C211.604 60.0613 211.931 60.2667 212.201 60.556C212.481 60.8453 212.621 61.256 212.621 61.788C212.621 62.488 212.318 63.048 211.711 63.468C211.105 63.888 210.279 64.098 209.233 64.098ZM221.156 60.304C221.156 60.4253 221.147 60.598 221.128 60.822H215.262C215.365 61.3727 215.631 61.8113 216.06 62.138C216.499 62.4553 217.04 62.614 217.684 62.614C218.506 62.614 219.182 62.3433 219.714 61.802L220.652 62.88C220.316 63.2813 219.892 63.5847 219.378 63.79C218.865 63.9953 218.286 64.098 217.642 64.098C216.821 64.098 216.098 63.9347 215.472 63.608C214.847 63.2813 214.362 62.8287 214.016 62.25C213.68 61.662 213.512 60.9993 213.512 60.262C213.512 59.534 213.676 58.8807 214.002 58.302C214.338 57.714 214.8 57.2567 215.388 56.93C215.976 56.6033 216.639 56.44 217.376 56.44C218.104 56.44 218.753 56.6033 219.322 56.93C219.901 57.2473 220.349 57.7 220.666 58.288C220.993 58.8667 221.156 59.5387 221.156 60.304ZM217.376 57.84C216.816 57.84 216.34 58.008 215.948 58.344C215.566 58.6707 215.332 59.1093 215.248 59.66H219.49C219.416 59.1187 219.187 58.68 218.804 58.344C218.422 58.008 217.946 57.84 217.376 57.84ZM222.837 53.612H224.587V64H222.837V53.612ZM226.884 53.612H228.634V64H226.884V53.612ZM50.148 74.524L46.648 82.602C46.3213 83.414 45.9247 83.9833 45.458 84.31C44.9913 84.646 44.4267 84.814 43.764 84.814C43.3907 84.814 43.022 84.7533 42.658 84.632C42.294 84.5107 41.9953 84.3427 41.762 84.128L42.462 82.84C42.63 82.9987 42.826 83.1247 43.05 83.218C43.2833 83.3113 43.5167 83.358 43.75 83.358C44.058 83.358 44.31 83.2787 44.506 83.12C44.7113 82.9613 44.898 82.6953 45.066 82.322L45.192 82.028L41.93 74.524H43.75L46.102 80.054L48.468 74.524H50.148ZM54.3967 82.098C53.6407 82.098 52.9593 81.9347 52.3527 81.608C51.746 81.2813 51.27 80.8287 50.9247 80.25C50.5887 79.662 50.4207 78.9993 50.4207 78.262C50.4207 77.5247 50.5887 76.8667 50.9247 76.288C51.27 75.7093 51.746 75.2567 52.3527 74.93C52.9593 74.6033 53.6407 74.44 54.3967 74.44C55.162 74.44 55.848 74.6033 56.4547 74.93C57.0613 75.2567 57.5327 75.7093 57.8687 76.288C58.214 76.8667 58.3867 77.5247 58.3867 78.262C58.3867 78.9993 58.214 79.662 57.8687 80.25C57.5327 80.8287 57.0613 81.2813 56.4547 81.608C55.848 81.9347 55.162 82.098 54.3967 82.098ZM54.3967 80.6C55.0407 80.6 55.5727 80.3853 55.9927 79.956C56.4127 79.5267 56.6227 78.962 56.6227 78.262C56.6227 77.562 56.4127 76.9973 55.9927 76.568C55.5727 76.1387 55.0407 75.924 54.3967 75.924C53.7527 75.924 53.2207 76.1387 52.8007 76.568C52.39 76.9973 52.1847 77.562 52.1847 78.262C52.1847 78.962 52.39 79.5267 52.8007 79.956C53.2207 80.3853 53.7527 80.6 54.3967 80.6ZM67.2981 74.524V82H65.6321V81.048C65.3521 81.384 65.0021 81.6453 64.5821 81.832C64.1621 82.0093 63.7094 82.098 63.2241 82.098C62.2254 82.098 61.4368 81.8227 60.8581 81.272C60.2888 80.712 60.0041 79.886 60.0041 78.794V74.524H61.7541V78.556C61.7541 79.228 61.9034 79.732 62.2021 80.068C62.5101 80.3947 62.9441 80.558 63.5041 80.558C64.1294 80.558 64.6241 80.3667 64.9881 79.984C65.3614 79.592 65.5481 79.032 65.5481 78.304V74.524H67.2981ZM71.2554 75.616C71.7594 74.832 72.6461 74.44 73.9154 74.44V76.106C73.7661 76.078 73.6307 76.064 73.5094 76.064C72.8281 76.064 72.2961 76.2647 71.9134 76.666C71.5307 77.058 71.3394 77.6273 71.3394 78.374V82H69.5894V74.524H71.2554V75.616ZM90.9995 74.524L88.2415 82H86.5615L84.6295 76.848L82.6695 82H80.9895L78.2455 74.524H79.8975L81.8715 80.04L83.9295 74.524H85.3995L87.4155 80.068L89.4455 74.524H90.9995ZM96.4447 74.44C97.3874 74.44 98.1434 74.7153 98.7127 75.266C99.282 75.8167 99.5667 76.6333 99.5667 77.716V82H97.8167V77.94C97.8167 77.2867 97.6627 76.7967 97.3547 76.47C97.0467 76.134 96.608 75.966 96.0387 75.966C95.3947 75.966 94.886 76.162 94.5127 76.554C94.1394 76.9367 93.9527 77.492 93.9527 78.22V82H92.2027V71.612H93.9527V75.392C94.242 75.084 94.5967 74.8507 95.0167 74.692C95.446 74.524 95.922 74.44 96.4447 74.44ZM101.787 74.524H103.537V82H101.787V74.524ZM102.669 73.292C102.351 73.292 102.085 73.194 101.871 72.998C101.656 72.7927 101.549 72.5407 101.549 72.242C101.549 71.9433 101.656 71.696 101.871 71.5C102.085 71.2947 102.351 71.192 102.669 71.192C102.986 71.192 103.252 71.29 103.467 71.486C103.681 71.6727 103.789 71.9107 103.789 72.2C103.789 72.508 103.681 72.7693 103.467 72.984C103.261 73.1893 102.995 73.292 102.669 73.292ZM110.328 81.594C110.122 81.762 109.87 81.888 109.572 81.972C109.282 82.056 108.974 82.098 108.648 82.098C107.826 82.098 107.192 81.8833 106.744 81.454C106.296 81.0247 106.072 80.3993 106.072 79.578V75.98H104.84V74.58H106.072V72.872H107.822V74.58H109.824V75.98H107.822V79.536C107.822 79.9 107.91 80.18 108.088 80.376C108.265 80.5627 108.522 80.656 108.858 80.656C109.25 80.656 109.576 80.5533 109.838 80.348L110.328 81.594ZM118.549 78.304C118.549 78.4253 118.54 78.598 118.521 78.822H112.655C112.758 79.3727 113.024 79.8113 113.453 80.138C113.892 80.4553 114.433 80.614 115.077 80.614C115.898 80.614 116.575 80.3433 117.107 79.802L118.045 80.88C117.709 81.2813 117.284 81.5847 116.771 81.79C116.258 81.9953 115.679 82.098 115.035 82.098C114.214 82.098 113.49 81.9347 112.865 81.608C112.24 81.2813 111.754 80.8287 111.409 80.25C111.073 79.662 110.905 78.9993 110.905 78.262C110.905 77.534 111.068 76.8807 111.395 76.302C111.731 75.714 112.193 75.2567 112.781 74.93C113.369 74.6033 114.032 74.44 114.769 74.44C115.497 74.44 116.146 74.6033 116.715 74.93C117.294 75.2473 117.742 75.7 118.059 76.288C118.386 76.8667 118.549 77.5387 118.549 78.304ZM114.769 75.84C114.209 75.84 113.733 76.008 113.341 76.344C112.958 76.6707 112.725 77.1093 112.641 77.66H116.883C116.808 77.1187 116.58 76.68 116.197 76.344C115.814 76.008 115.338 75.84 114.769 75.84ZM120.23 71.612H121.98V82H120.23V71.612ZM124.277 74.524H126.027V82H124.277V74.524ZM125.159 73.292C124.842 73.292 124.576 73.194 124.361 72.998C124.146 72.7927 124.039 72.5407 124.039 72.242C124.039 71.9433 124.146 71.696 124.361 71.5C124.576 71.2947 124.842 71.192 125.159 71.192C125.476 71.192 125.742 71.29 125.957 71.486C126.172 71.6727 126.279 71.9107 126.279 72.2C126.279 72.508 126.172 72.7693 125.957 72.984C125.752 73.1893 125.486 73.292 125.159 73.292ZM130.634 82.098C130.027 82.098 129.434 82.0187 128.856 81.86C128.277 81.7013 127.815 81.5007 127.47 81.258L128.142 79.928C128.478 80.152 128.879 80.334 129.346 80.474C129.822 80.6047 130.288 80.67 130.746 80.67C131.791 80.67 132.314 80.3947 132.314 79.844C132.314 79.5827 132.178 79.4007 131.908 79.298C131.646 79.1953 131.222 79.0973 130.634 79.004C130.018 78.9107 129.514 78.8033 129.122 78.682C128.739 78.5607 128.403 78.3507 128.114 78.052C127.834 77.744 127.694 77.3193 127.694 76.778C127.694 76.0687 127.988 75.504 128.576 75.084C129.173 74.6547 129.976 74.44 130.984 74.44C131.497 74.44 132.01 74.5007 132.524 74.622C133.037 74.734 133.457 74.888 133.784 75.084L133.112 76.414C132.477 76.0407 131.763 75.854 130.97 75.854C130.456 75.854 130.064 75.9333 129.794 76.092C129.532 76.2413 129.402 76.442 129.402 76.694C129.402 76.974 129.542 77.1747 129.822 77.296C130.111 77.408 130.554 77.5153 131.152 77.618C131.749 77.7113 132.239 77.8187 132.622 77.94C133.004 78.0613 133.331 78.2667 133.602 78.556C133.882 78.8453 134.022 79.256 134.022 79.788C134.022 80.488 133.718 81.048 133.112 81.468C132.505 81.888 131.679 82.098 130.634 82.098ZM140.023 81.594C139.818 81.762 139.566 81.888 139.267 81.972C138.978 82.056 138.67 82.098 138.343 82.098C137.522 82.098 136.887 81.8833 136.439 81.454C135.991 81.0247 135.767 80.3993 135.767 79.578V75.98H134.535V74.58H135.767V72.872H137.517V74.58H139.519V75.98H137.517V79.536C137.517 79.9 137.606 80.18 137.783 80.376C137.96 80.5627 138.217 80.656 138.553 80.656C138.945 80.656 139.272 80.5533 139.533 80.348L140.023 81.594ZM147.642 82.098C147.035 82.098 146.442 82.0187 145.864 81.86C145.285 81.7013 144.823 81.5007 144.478 81.258L145.15 79.928C145.486 80.152 145.887 80.334 146.354 80.474C146.83 80.6047 147.296 80.67 147.754 80.67C148.799 80.67 149.322 80.3947 149.322 79.844C149.322 79.5827 149.186 79.4007 148.916 79.298C148.654 79.1953 148.23 79.0973 147.642 79.004C147.026 78.9107 146.522 78.8033 146.13 78.682C145.747 78.5607 145.411 78.3507 145.122 78.052C144.842 77.744 144.702 77.3193 144.702 76.778C144.702 76.0687 144.996 75.504 145.584 75.084C146.181 74.6547 146.984 74.44 147.992 74.44C148.505 74.44 149.018 74.5007 149.532 74.622C150.045 74.734 150.465 74.888 150.792 75.084L150.12 76.414C149.485 76.0407 148.771 75.854 147.978 75.854C147.464 75.854 147.072 75.9333 146.802 76.092C146.54 76.2413 146.41 76.442 146.41 76.694C146.41 76.974 146.55 77.1747 146.83 77.296C147.119 77.408 147.562 77.5153 148.16 77.618C148.757 77.7113 149.247 77.8187 149.63 77.94C150.012 78.0613 150.339 78.2667 150.61 78.556C150.89 78.8453 151.03 79.256 151.03 79.788C151.03 80.488 150.726 81.048 150.12 81.468C149.513 81.888 148.687 82.098 147.642 82.098ZM156.681 74.44C157.409 74.44 158.057 74.5987 158.627 74.916C159.205 75.2333 159.658 75.6813 159.985 76.26C160.311 76.8387 160.475 77.506 160.475 78.262C160.475 79.018 160.311 79.69 159.985 80.278C159.658 80.8567 159.205 81.3047 158.627 81.622C158.057 81.9393 157.409 82.098 156.681 82.098C155.673 82.098 154.875 81.762 154.287 81.09V84.716H152.537V74.524H154.203V75.504C154.492 75.1493 154.847 74.8833 155.267 74.706C155.696 74.5287 156.167 74.44 156.681 74.44ZM156.485 80.6C157.129 80.6 157.656 80.3853 158.067 79.956C158.487 79.5267 158.697 78.962 158.697 78.262C158.697 77.562 158.487 76.9973 158.067 76.568C157.656 76.1387 157.129 75.924 156.485 75.924C156.065 75.924 155.687 76.022 155.351 76.218C155.015 76.4047 154.749 76.6753 154.553 77.03C154.357 77.3847 154.259 77.7953 154.259 78.262C154.259 78.7287 154.357 79.1393 154.553 79.494C154.749 79.8487 155.015 80.124 155.351 80.32C155.687 80.5067 156.065 80.6 156.485 80.6ZM165.494 82.098C164.738 82.098 164.057 81.9347 163.45 81.608C162.844 81.2813 162.368 80.8287 162.022 80.25C161.686 79.662 161.518 78.9993 161.518 78.262C161.518 77.5247 161.686 76.8667 162.022 76.288C162.368 75.7093 162.844 75.2567 163.45 74.93C164.057 74.6033 164.738 74.44 165.494 74.44C166.26 74.44 166.946 74.6033 167.552 74.93C168.159 75.2567 168.63 75.7093 168.966 76.288C169.312 76.8667 169.484 77.5247 169.484 78.262C169.484 78.9993 169.312 79.662 168.966 80.25C168.63 80.8287 168.159 81.2813 167.552 81.608C166.946 81.9347 166.26 82.098 165.494 82.098ZM165.494 80.6C166.138 80.6 166.67 80.3853 167.09 79.956C167.51 79.5267 167.72 78.962 167.72 78.262C167.72 77.562 167.51 76.9973 167.09 76.568C166.67 76.1387 166.138 75.924 165.494 75.924C164.85 75.924 164.318 76.1387 163.898 76.568C163.488 76.9973 163.282 77.562 163.282 78.262C163.282 78.962 163.488 79.5267 163.898 79.956C164.318 80.3853 164.85 80.6 165.494 80.6ZM175.652 81.594C175.446 81.762 175.194 81.888 174.896 81.972C174.606 82.056 174.298 82.098 173.972 82.098C173.15 82.098 172.516 81.8833 172.068 81.454C171.62 81.0247 171.396 80.3993 171.396 79.578V75.98H170.164V74.58H171.396V72.872H173.146V74.58H175.148V75.98H173.146V79.536C173.146 79.9 173.234 80.18 173.412 80.376C173.589 80.5627 173.846 80.656 174.182 80.656C174.574 80.656 174.9 80.5533 175.162 80.348L175.652 81.594ZM178.846 78.752C178.846 78.248 178.958 77.8327 179.182 77.506C179.416 77.17 179.752 76.806 180.19 76.414C180.526 76.1153 180.774 75.8587 180.932 75.644C181.1 75.42 181.184 75.168 181.184 74.888C181.184 74.496 181.026 74.1787 180.708 73.936C180.391 73.6933 179.966 73.572 179.434 73.572C178.426 73.572 177.666 73.9313 177.152 74.65L175.794 73.768C176.196 73.2173 176.714 72.7973 177.348 72.508C177.983 72.2093 178.73 72.06 179.588 72.06C180.634 72.06 181.464 72.2887 182.08 72.746C182.706 73.194 183.018 73.8147 183.018 74.608C183.018 74.9907 182.953 75.3267 182.822 75.616C182.701 75.9053 182.552 76.1527 182.374 76.358C182.197 76.554 181.964 76.7827 181.674 77.044C181.32 77.3613 181.054 77.6413 180.876 77.884C180.708 78.1267 180.624 78.416 180.624 78.752H178.846ZM179.742 82.098C179.416 82.098 179.145 81.9953 178.93 81.79C178.725 81.5753 178.622 81.314 178.622 81.006C178.622 80.698 178.725 80.4413 178.93 80.236C179.145 80.0307 179.416 79.928 179.742 79.928C180.06 79.928 180.321 80.0307 180.526 80.236C180.741 80.4413 180.848 80.698 180.848 81.006C180.848 81.314 180.741 81.5753 180.526 81.79C180.321 81.9953 180.06 82.098 179.742 82.098Z" fill="#4E4B66"/>
<path d="M72.04 136V126.77H73.496V134.713H78.449V136H72.04ZM79.4498 136V129.201H80.8798V136H79.4498ZM79.4498 128.083V126.51H80.8798V128.083H79.4498ZM85.0162 136.13C84.4442 136.13 83.9026 136.039 83.3912 135.857C82.8799 135.666 82.4422 135.385 82.0782 135.012L82.6112 134.05C83.0012 134.397 83.3912 134.648 83.7812 134.804C84.1799 134.96 84.5742 135.038 84.9642 135.038C85.3629 135.038 85.6879 134.964 85.9392 134.817C86.1906 134.661 86.3162 134.436 86.3162 134.141C86.3162 133.924 86.2512 133.764 86.1212 133.66C85.9912 133.556 85.8006 133.465 85.5492 133.387C85.3066 133.309 85.0119 133.222 84.6652 133.127C84.1799 132.98 83.7726 132.828 83.4432 132.672C83.1139 132.507 82.8669 132.308 82.7022 132.074C82.5376 131.84 82.4552 131.541 82.4552 131.177C82.4552 130.735 82.5679 130.358 82.7932 130.046C83.0186 129.734 83.3306 129.496 83.7292 129.331C84.1366 129.166 84.6046 129.084 85.1332 129.084C85.6272 129.084 86.0822 129.162 86.4982 129.318C86.9229 129.465 87.2956 129.699 87.6162 130.02L87.0052 130.969C86.7019 130.692 86.3899 130.488 86.0692 130.358C85.7572 130.228 85.4192 130.163 85.0552 130.163C84.8472 130.163 84.6479 130.189 84.4572 130.241C84.2666 130.284 84.1062 130.371 83.9762 130.501C83.8549 130.622 83.7942 130.796 83.7942 131.021C83.7942 131.203 83.8462 131.35 83.9502 131.463C84.0542 131.576 84.2102 131.671 84.4182 131.749C84.6262 131.827 84.8819 131.914 85.1852 132.009C85.7139 132.165 86.1646 132.321 86.5372 132.477C86.9099 132.624 87.1959 132.819 87.3952 133.062C87.6032 133.296 87.7072 133.621 87.7072 134.037C87.7072 134.696 87.4602 135.211 86.9662 135.584C86.4809 135.948 85.8309 136.13 85.0162 136.13ZM92.7543 135.649C92.6329 135.71 92.4813 135.775 92.2993 135.844C92.1173 135.913 91.9093 135.974 91.6753 136.026C91.4499 136.078 91.2159 136.104 90.9733 136.104C90.6786 136.104 90.4056 136.052 90.1543 135.948C89.9029 135.844 89.6993 135.679 89.5433 135.454C89.3959 135.22 89.3223 134.921 89.3223 134.557V130.306H88.4253V129.201H89.3223V126.965H90.7523V129.201H92.2343V130.306H90.7523V134.102C90.7696 134.336 90.8433 134.509 90.9733 134.622C91.1119 134.735 91.2809 134.791 91.4803 134.791C91.6796 134.791 91.8703 134.756 92.0523 134.687C92.2343 134.618 92.3686 134.561 92.4553 134.518L92.7543 135.649ZM99.6745 134.011C99.6745 133.578 99.7959 133.201 100.039 132.88C100.29 132.551 100.632 132.299 101.066 132.126C101.499 131.944 102.002 131.853 102.574 131.853C102.877 131.853 103.185 131.875 103.497 131.918C103.817 131.961 104.099 132.031 104.342 132.126V131.697C104.342 131.22 104.199 130.848 103.913 130.579C103.627 130.31 103.215 130.176 102.678 130.176C102.296 130.176 101.937 130.245 101.599 130.384C101.261 130.514 100.901 130.7 100.52 130.943L100.039 129.981C100.489 129.678 100.94 129.452 101.391 129.305C101.85 129.158 102.331 129.084 102.834 129.084C103.744 129.084 104.459 129.327 104.979 129.812C105.507 130.289 105.772 130.969 105.772 131.853V134.388C105.772 134.553 105.798 134.67 105.85 134.739C105.91 134.808 106.01 134.847 106.149 134.856V136C106.019 136.026 105.902 136.043 105.798 136.052C105.694 136.061 105.607 136.065 105.538 136.065C105.234 136.065 105.005 135.991 104.849 135.844C104.693 135.697 104.602 135.523 104.576 135.324L104.537 134.934C104.242 135.315 103.865 135.61 103.406 135.818C102.946 136.026 102.483 136.13 102.015 136.13C101.564 136.13 101.161 136.039 100.806 135.857C100.45 135.666 100.173 135.411 99.9735 135.09C99.7742 134.769 99.6745 134.41 99.6745 134.011ZM104.004 134.427C104.108 134.314 104.19 134.202 104.251 134.089C104.311 133.976 104.342 133.877 104.342 133.79V133.01C104.099 132.915 103.843 132.845 103.575 132.802C103.306 132.75 103.042 132.724 102.782 132.724C102.262 132.724 101.837 132.828 101.508 133.036C101.187 133.244 101.027 133.53 101.027 133.894C101.027 134.093 101.079 134.284 101.183 134.466C101.295 134.648 101.451 134.795 101.651 134.908C101.859 135.021 102.114 135.077 102.418 135.077C102.73 135.077 103.029 135.016 103.315 134.895C103.601 134.774 103.83 134.618 104.004 134.427ZM118.826 129.201H120.191L117.331 136H116.109L114.887 132.932L113.665 136H112.443L109.57 129.201H110.935L113.119 134.609L114.081 132.1L112.911 129.214H114.12L114.887 131.333L115.641 129.214H116.85L115.693 132.1L116.655 134.609L118.826 129.201ZM127.238 136H125.808V132.191C125.808 131.576 125.696 131.116 125.47 130.813C125.245 130.51 124.929 130.358 124.521 130.358C124.27 130.358 124.01 130.427 123.741 130.566C123.473 130.705 123.234 130.895 123.026 131.138C122.818 131.372 122.667 131.645 122.571 131.957V136H121.141V126.51H122.571V130.566C122.831 130.107 123.187 129.747 123.637 129.487C124.088 129.218 124.573 129.084 125.093 129.084C125.518 129.084 125.869 129.158 126.146 129.305C126.424 129.452 126.64 129.656 126.796 129.916C126.961 130.167 127.074 130.462 127.134 130.8C127.204 131.129 127.238 131.48 127.238 131.853V136ZM128.898 136V129.201H130.328V136H128.898ZM128.898 128.083V126.51H130.328V128.083H128.898ZM135.829 135.649C135.708 135.71 135.556 135.775 135.374 135.844C135.192 135.913 134.984 135.974 134.75 136.026C134.525 136.078 134.291 136.104 134.048 136.104C133.754 136.104 133.481 136.052 133.229 135.948C132.978 135.844 132.774 135.679 132.618 135.454C132.471 135.22 132.397 134.921 132.397 134.557V130.306H131.5V129.201H132.397V126.965H133.827V129.201H135.309V130.306H133.827V134.102C133.845 134.336 133.918 134.509 134.048 134.622C134.187 134.735 134.356 134.791 134.555 134.791C134.755 134.791 134.945 134.756 135.127 134.687C135.309 134.618 135.444 134.561 135.53 134.518L135.829 135.649ZM139.812 136.13C139.283 136.13 138.802 136.039 138.369 135.857C137.944 135.666 137.576 135.411 137.264 135.09C136.952 134.761 136.709 134.388 136.536 133.972C136.371 133.547 136.289 133.097 136.289 132.62C136.289 131.979 136.436 131.394 136.731 130.865C137.026 130.328 137.437 129.899 137.966 129.578C138.495 129.249 139.114 129.084 139.825 129.084C140.536 129.084 141.147 129.249 141.658 129.578C142.178 129.899 142.581 130.323 142.867 130.852C143.153 131.381 143.296 131.948 143.296 132.555C143.296 132.659 143.292 132.759 143.283 132.854C143.274 132.941 143.266 133.014 143.257 133.075H137.81C137.836 133.474 137.944 133.825 138.135 134.128C138.334 134.423 138.586 134.657 138.889 134.83C139.192 134.995 139.517 135.077 139.864 135.077C140.245 135.077 140.605 134.982 140.943 134.791C141.29 134.6 141.524 134.349 141.645 134.037L142.867 134.388C142.72 134.717 142.494 135.016 142.191 135.285C141.896 135.545 141.545 135.753 141.138 135.909C140.731 136.056 140.289 136.13 139.812 136.13ZM137.771 132.126H141.879C141.853 131.736 141.74 131.394 141.541 131.099C141.35 130.796 141.103 130.562 140.8 130.397C140.505 130.224 140.176 130.137 139.812 130.137C139.457 130.137 139.127 130.224 138.824 130.397C138.529 130.562 138.287 130.796 138.096 131.099C137.905 131.394 137.797 131.736 137.771 132.126ZM144.475 126.51H145.905V134.037C145.905 134.384 145.957 134.605 146.061 134.7C146.165 134.795 146.295 134.843 146.451 134.843C146.625 134.843 146.785 134.826 146.932 134.791C147.088 134.756 147.223 134.713 147.335 134.661L147.543 135.792C147.335 135.879 147.088 135.952 146.802 136.013C146.516 136.074 146.261 136.104 146.035 136.104C145.55 136.104 145.169 135.97 144.891 135.701C144.614 135.424 144.475 135.042 144.475 134.557V126.51ZM148.373 136V129.201H149.803V136H148.373ZM148.373 128.083V126.51H149.803V128.083H148.373ZM153.939 136.13C153.367 136.13 152.825 136.039 152.314 135.857C151.803 135.666 151.365 135.385 151.001 135.012L151.534 134.05C151.924 134.397 152.314 134.648 152.704 134.804C153.103 134.96 153.497 135.038 153.887 135.038C154.286 135.038 154.611 134.964 154.862 134.817C155.113 134.661 155.239 134.436 155.239 134.141C155.239 133.924 155.174 133.764 155.044 133.66C154.914 133.556 154.723 133.465 154.472 133.387C154.229 133.309 153.935 133.222 153.588 133.127C153.103 132.98 152.695 132.828 152.366 132.672C152.037 132.507 151.79 132.308 151.625 132.074C151.46 131.84 151.378 131.541 151.378 131.177C151.378 130.735 151.491 130.358 151.716 130.046C151.941 129.734 152.253 129.496 152.652 129.331C153.059 129.166 153.527 129.084 154.056 129.084C154.55 129.084 155.005 129.162 155.421 129.318C155.846 129.465 156.218 129.699 156.539 130.02L155.928 130.969C155.625 130.692 155.313 130.488 154.992 130.358C154.68 130.228 154.342 130.163 153.978 130.163C153.77 130.163 153.571 130.189 153.38 130.241C153.189 130.284 153.029 130.371 152.899 130.501C152.778 130.622 152.717 130.796 152.717 131.021C152.717 131.203 152.769 131.35 152.873 131.463C152.977 131.576 153.133 131.671 153.341 131.749C153.549 131.827 153.805 131.914 154.108 132.009C154.637 132.165 155.087 132.321 155.46 132.477C155.833 132.624 156.119 132.819 156.318 133.062C156.526 133.296 156.63 133.621 156.63 134.037C156.63 134.696 156.383 135.211 155.889 135.584C155.404 135.948 154.754 136.13 153.939 136.13ZM161.677 135.649C161.556 135.71 161.404 135.775 161.222 135.844C161.04 135.913 160.832 135.974 160.598 136.026C160.373 136.078 160.139 136.104 159.896 136.104C159.601 136.104 159.328 136.052 159.077 135.948C158.826 135.844 158.622 135.679 158.466 135.454C158.319 135.22 158.245 134.921 158.245 134.557V130.306H157.348V129.201H158.245V126.965H159.675V129.201H161.157V130.306H159.675V134.102C159.692 134.336 159.766 134.509 159.896 134.622C160.035 134.735 160.204 134.791 160.403 134.791C160.602 134.791 160.793 134.756 160.975 134.687C161.157 134.618 161.291 134.561 161.378 134.518L161.677 135.649ZM168.297 136.13C167.725 136.13 167.184 136.039 166.672 135.857C166.161 135.666 165.723 135.385 165.359 135.012L165.892 134.05C166.282 134.397 166.672 134.648 167.062 134.804C167.461 134.96 167.855 135.038 168.245 135.038C168.644 135.038 168.969 134.964 169.22 134.817C169.472 134.661 169.597 134.436 169.597 134.141C169.597 133.924 169.532 133.764 169.402 133.66C169.272 133.556 169.082 133.465 168.83 133.387C168.588 133.309 168.293 133.222 167.946 133.127C167.461 132.98 167.054 132.828 166.724 132.672C166.395 132.507 166.148 132.308 165.983 132.074C165.819 131.84 165.736 131.541 165.736 131.177C165.736 130.735 165.849 130.358 166.074 130.046C166.3 129.734 166.612 129.496 167.01 129.331C167.418 129.166 167.886 129.084 168.414 129.084C168.908 129.084 169.363 129.162 169.779 129.318C170.204 129.465 170.577 129.699 170.897 130.02L170.286 130.969C169.983 130.692 169.671 130.488 169.35 130.358C169.038 130.228 168.7 130.163 168.336 130.163C168.128 130.163 167.929 130.189 167.738 130.241C167.548 130.284 167.387 130.371 167.257 130.501C167.136 130.622 167.075 130.796 167.075 131.021C167.075 131.203 167.127 131.35 167.231 131.463C167.335 131.576 167.491 131.671 167.699 131.749C167.907 131.827 168.163 131.914 168.466 132.009C168.995 132.165 169.446 132.321 169.818 132.477C170.191 132.624 170.477 132.819 170.676 133.062C170.884 133.296 170.988 133.621 170.988 134.037C170.988 134.696 170.741 135.211 170.247 135.584C169.762 135.948 169.112 136.13 168.297 136.13ZM176.126 136.13C175.58 136.13 175.099 136 174.683 135.74C174.267 135.48 173.938 135.142 173.695 134.726V138.769H172.265V129.201H173.526V130.423C173.786 130.016 174.124 129.691 174.54 129.448C174.956 129.205 175.42 129.084 175.931 129.084C176.399 129.084 176.828 129.179 177.218 129.37C177.608 129.552 177.946 129.808 178.232 130.137C178.518 130.466 178.739 130.843 178.895 131.268C179.06 131.684 179.142 132.126 179.142 132.594C179.142 133.244 179.012 133.838 178.752 134.375C178.501 134.912 178.146 135.341 177.686 135.662C177.236 135.974 176.716 136.13 176.126 136.13ZM175.658 134.908C175.962 134.908 176.235 134.843 176.477 134.713C176.729 134.583 176.941 134.41 177.114 134.193C177.296 133.976 177.435 133.729 177.53 133.452C177.626 133.175 177.673 132.889 177.673 132.594C177.673 132.282 177.621 131.987 177.517 131.71C177.413 131.433 177.262 131.19 177.062 130.982C176.872 130.774 176.646 130.609 176.386 130.488C176.135 130.367 175.858 130.306 175.554 130.306C175.372 130.306 175.182 130.341 174.982 130.41C174.783 130.479 174.597 130.575 174.423 130.696C174.25 130.817 174.098 130.96 173.968 131.125C173.838 131.29 173.747 131.463 173.695 131.645V133.426C173.817 133.703 173.977 133.955 174.176 134.18C174.376 134.397 174.605 134.574 174.865 134.713C175.125 134.843 175.39 134.908 175.658 134.908ZM183.483 136.13C182.946 136.13 182.465 136.039 182.04 135.857C181.616 135.666 181.247 135.406 180.935 135.077C180.632 134.748 180.398 134.375 180.233 133.959C180.069 133.534 179.986 133.084 179.986 132.607C179.986 132.13 180.069 131.68 180.233 131.255C180.398 130.83 180.632 130.458 180.935 130.137C181.247 129.808 181.616 129.552 182.04 129.37C182.474 129.179 182.955 129.084 183.483 129.084C184.012 129.084 184.489 129.179 184.913 129.37C185.347 129.552 185.715 129.808 186.018 130.137C186.33 130.458 186.569 130.83 186.733 131.255C186.898 131.68 186.98 132.13 186.98 132.607C186.98 133.084 186.898 133.534 186.733 133.959C186.569 134.375 186.33 134.748 186.018 135.077C185.715 135.406 185.347 135.666 184.913 135.857C184.489 136.039 184.012 136.13 183.483 136.13ZM181.455 132.62C181.455 133.053 181.546 133.443 181.728 133.79C181.91 134.137 182.153 134.41 182.456 134.609C182.76 134.808 183.102 134.908 183.483 134.908C183.856 134.908 184.194 134.808 184.497 134.609C184.809 134.401 185.056 134.124 185.238 133.777C185.42 133.422 185.511 133.032 185.511 132.607C185.511 132.174 185.42 131.784 185.238 131.437C185.056 131.09 184.809 130.817 184.497 130.618C184.194 130.41 183.856 130.306 183.483 130.306C183.102 130.306 182.76 130.41 182.456 130.618C182.153 130.826 181.91 131.103 181.728 131.45C181.546 131.788 181.455 132.178 181.455 132.62ZM191.93 135.649C191.809 135.71 191.657 135.775 191.475 135.844C191.293 135.913 191.085 135.974 190.851 136.026C190.626 136.078 190.392 136.104 190.149 136.104C189.854 136.104 189.581 136.052 189.33 135.948C189.079 135.844 188.875 135.679 188.719 135.454C188.572 135.22 188.498 134.921 188.498 134.557V130.306H187.601V129.201H188.498V126.965H189.928V129.201H191.41V130.306H189.928V134.102C189.945 134.336 190.019 134.509 190.149 134.622C190.288 134.735 190.457 134.791 190.656 134.791C190.855 134.791 191.046 134.756 191.228 134.687C191.41 134.618 191.544 134.561 191.631 134.518L191.93 135.649Z" fill="#14142B"/>
<path d="M316 124C318.122 124 320.157 124.843 321.657 126.343C323.157 127.843 324 129.878 324 132C324 134.122 323.157 136.157 321.657 137.657C320.157 139.157 318.122 140 316 140C313.878 140 311.843 139.157 310.343 137.657C308.843 136.157 308 134.122 308 132C308 129.878 308.843 127.843 310.343 126.343C311.843 124.843 313.878 124 316 124V124ZM312.5 131.5C312.367 131.5 312.24 131.553 312.146 131.646C312.053 131.74 312 131.867 312 132C312 132.133 312.053 132.26 312.146 132.354C312.24 132.447 312.367 132.5 312.5 132.5H318.293L316.146 134.646C316.1 134.692 316.063 134.748 316.037 134.808C316.012 134.869 315.999 134.934 315.999 135C315.999 135.066 316.012 135.131 316.037 135.192C316.063 135.252 316.1 135.308 316.146 135.354C316.192 135.4 316.248 135.437 316.308 135.463C316.369 135.488 316.434 135.501 316.5 135.501C316.566 135.501 316.631 135.488 316.692 135.463C316.752 135.437 316.808 135.4 316.854 135.354L319.854 132.354C319.901 132.308 319.938 132.252 319.963 132.192C319.988 132.131 320.001 132.066 320.001 132C320.001 131.934 319.988 131.869 319.963 131.808C319.938 131.748 319.901 131.692 319.854 131.646L316.854 128.646C316.808 128.6 316.752 128.563 316.692 128.537C316.631 128.512 316.566 128.499 316.5 128.499C316.434 128.499 316.369 128.512 316.308 128.537C316.248 128.563 316.192 128.6 316.146 128.646C316.1 128.692 316.063 128.748 316.037 128.808C316.012 128.869 315.999 128.934 315.999 129C315.999 129.066 316.012 129.131 316.037 129.192C316.063 129.252 316.1 129.308 316.146 129.354L318.293 131.5H312.5Z" fill="#0770A8"/>
<rect x="42.5" y="100.5" width="310" height="62" rx="5.5" stroke="#4E4B66"/>
</svg>
