<svg width="22" height="14" viewBox="0 0 22 14" fill="none" xmlns="http://www.w3.org/2000/svg">
<path d="M12.4094 7.00001C12.4094 10.4169 9.63188 13.1875 6.204 13.1875C5.39036 13.1886 4.58448 13.0294 3.83236 12.719C3.08024 12.4087 2.39662 11.9532 1.82053 11.3786C1.24443 10.8041 0.787145 10.1217 0.474779 9.37039C0.162413 8.6191 0.00108268 7.81364 0 7.00001C0 3.58176 2.7775 0.812507 6.204 0.812507C7.01775 0.811243 7.82379 0.970294 8.57606 1.28058C9.32834 1.59086 10.0121 2.0463 10.5884 2.62088C11.1646 3.19546 11.622 3.87793 11.9345 4.62931C12.2469 5.38068 12.4083 6.18625 12.4094 7.00001ZM19.2156 7.00001C19.2156 10.2175 17.8269 12.8245 16.1136 12.8245C14.4004 12.8245 13.0116 10.2161 13.0116 7.00001C13.0116 3.78251 14.4004 1.17551 16.1136 1.17551C17.8269 1.17551 19.2156 3.78388 19.2156 7.00001ZM22 7.00001C22 9.88201 21.5119 12.2181 20.9083 12.2181C20.306 12.2181 19.8179 9.88063 19.8179 7.00001C19.8179 4.11801 20.306 1.78188 20.9096 1.78188C21.5119 1.78188 22 4.11801 22 7.00001Z" fill="#20709B"/>
</svg>
