<svg width="24" height="24" viewBox="0 0 24 24" fill="none" xmlns="http://www.w3.org/2000/svg">
<path d="M23.4437 0L13.1455 8.128L15.0605 3.3379L23.4437 0Z" fill="#E17726"/>
<path d="M0.580078 0.00960159L8.94089 3.3385L10.7593 8.1913L0.580078 0.00960159Z" fill="#E27625"/>
<path d="M19.2992 17.2858L23.8507 17.3782L22.2601 23.1424L16.7061 21.5113L19.2992 17.2858Z" fill="#E27625"/>
<path d="M4.70058 17.2858L7.28395 21.5113L1.7393 23.1425L0.158203 17.3782L4.70058 17.2858Z" fill="#E27625"/>
<path d="M10.5122 6.9552L10.6983 13.3635L5.13232 13.0934L6.71548 10.5456L6.73554 10.5211L10.5122 6.9552Z" fill="#E27625"/>
<path d="M13.43 6.8837L17.2644 10.5213L17.2843 10.5457L18.8675 13.0935L13.3027 13.3635L13.43 6.8837Z" fill="#E27625"/>
<path d="M7.44682 17.3044L10.486 19.8303L6.95557 21.6484L7.44682 17.3044Z" fill="#E27625"/>
<path d="M16.5536 17.304L17.0348 21.6485L13.5142 19.8301L16.5536 17.304Z" fill="#E27625"/>
<path d="M13.5918 19.5922L17.1643 21.4374L13.8412 23.122L13.8757 22.0086L13.5918 19.5922Z" fill="#D5BFB2"/>
<path d="M10.4074 19.593L10.1347 21.9904L10.1571 23.1207L6.82617 21.4374L10.4074 19.593Z" fill="#D5BFB2"/>
<path d="M9.3757 14.1999L10.3093 16.2927L7.13086 15.2995L9.3757 14.1999Z" fill="#233447"/>
<path d="M14.6243 14.2L16.8797 15.2995L13.6909 16.2924L14.6243 14.2Z" fill="#233447"/>
<path d="M7.68983 17.283L7.17608 21.787L4.42236 17.3815L7.68983 17.283Z" fill="#CC6228"/>
<path d="M16.3101 17.283L19.5776 17.3815L16.8136 21.7872L16.3101 17.283Z" fill="#CC6228"/>
<path d="M18.9479 12.8387L16.5699 15.4238L14.7364 14.5301L13.8586 16.4985L13.2832 13.1136L18.9479 12.8387Z" fill="#CC6228"/>
<path d="M5.05078 12.8387L10.7166 13.1137L10.141 16.4985L9.26306 14.5304L7.43934 15.4239L5.05078 12.8387Z" fill="#CC6228"/>
<path d="M4.89062 12.3082L7.58106 15.2203L7.67425 18.0953L4.89062 12.3082Z" fill="#E27525"/>
<path d="M19.1119 12.303L16.3232 18.1003L16.4282 15.2203L19.1119 12.303Z" fill="#E27525"/>
<path d="M10.5848 12.4856L10.6931 13.2126L10.9607 15.0236L10.7887 20.5862L9.97538 16.1177L9.9751 16.0715L10.5848 12.4856Z" fill="#E27525"/>
<path d="M13.4136 12.4755L14.0249 16.0715L14.0246 16.1177L13.2093 20.5974L13.177 19.4769L13.0498 14.9907L13.4136 12.4755Z" fill="#E27525"/>
<path d="M16.6675 15.1046L16.5766 17.6024L13.7383 19.9611L13.1646 19.5287L13.8077 15.9952L16.6675 15.1046Z" fill="#F5841F"/>
<path d="M7.34229 15.1046L10.1923 15.9952L10.8354 19.5287L10.2617 19.9611L7.42329 17.6021L7.34229 15.1046Z" fill="#F5841F"/>
<path d="M6.28271 20.8858L9.91384 22.721L9.89847 21.9373L10.2022 21.6528H13.7961L14.1109 21.9363L14.0877 22.7194L17.6958 20.8904L15.9401 22.438L13.8171 23.9933H10.1732L8.05159 22.4316L6.28271 20.8858Z" fill="#C0AC9D"/>
<path d="M13.3317 19.348L13.8451 19.7348L14.1459 22.2952L13.7105 21.9031H10.2909L9.86377 22.3031L10.1548 19.735L10.6683 19.348H13.3317Z" fill="#161616"/>
<path d="M22.7639 0.224998L24.0001 4.1807L23.228 8.1804L23.7778 8.6327L23.0339 9.2381L23.593 9.6987L22.8526 10.4178L23.3071 10.7689L22.101 12.2715L17.1538 10.735L17.1109 10.7105L13.5459 7.5027L22.7639 0.224998Z" fill="#763E1A"/>
<path d="M1.23619 0.224998L10.4543 7.5027L6.88912 10.7105L6.84628 10.735L1.89909 12.2715L0.692813 10.7689L1.14694 10.4181L0.407063 9.6987L0.965062 9.2387L0.21 8.6315L0.780469 8.1789L0 4.1809L1.23619 0.224998Z" fill="#763E1A"/>
<path d="M16.9118 10.399L22.1536 12.027L23.8566 17.6255H19.3637L16.2681 17.6671L18.5194 12.9863L16.9118 10.399Z" fill="#F5841F"/>
<path d="M7.08818 10.399L5.48027 12.9863L7.73186 17.6671L4.63764 17.6255H0.152832L1.84624 12.027L7.08818 10.399Z" fill="#F5841F"/>
<path d="M15.3172 3.3112L13.851 7.5351L13.5399 13.2411L13.4208 15.0296L13.4115 19.5984H10.5885L10.5793 15.0382L10.4598 13.2396L10.1486 7.5351L8.68262 3.3111L15.3172 3.3112Z" fill="#F5841F"/>
</svg>
