<svg width="65" height="65" viewBox="0 0 65 65" fill="none" xmlns="http://www.w3.org/2000/svg">
<path d="M42.4819 2.03125H6.09375V62.9688H59.9219V19.4712L42.4819 2.03125ZM55.8594 58.9062H10.1562V6.09375H40.7993L55.8594 21.1538V58.9062Z" fill="#F49A28"/>
<path d="M30.4511 19.2969C28.5478 19.2958 26.6707 19.7412 24.9707 20.5972C23.2708 21.4533 21.7953 22.6961 20.6628 24.2259C19.5304 25.7557 18.7726 27.5298 18.4502 29.4057C18.1279 31.2815 18.25 33.2069 18.8068 35.0269C19.3636 36.847 20.3396 38.5111 21.6563 39.8855C22.973 41.26 24.5937 42.3064 26.3882 42.9408C28.1827 43.5751 30.101 43.7797 31.989 43.5381C33.8769 43.2966 35.6819 42.6155 37.2588 41.5497L45.8955 50.1862L48.768 47.3138L40.1987 38.7444C41.5506 36.9361 42.3725 34.7871 42.5725 32.5381C42.7724 30.2891 42.3424 28.0289 41.3307 26.0104C40.319 23.9919 38.7654 22.2948 36.844 21.1091C34.9225 19.9234 32.709 19.2959 30.4511 19.2969ZM22.3438 31.4667C22.3437 29.8632 22.8192 28.2957 23.7101 26.9624C24.6009 25.6291 25.8671 24.5899 27.3486 23.9763C28.83 23.3626 30.4602 23.2021 32.0329 23.5149C33.6056 23.8277 35.0502 24.5999 36.1841 25.7337C37.3179 26.8676 38.0901 28.3122 38.4029 29.8849C38.7158 31.4576 38.5552 33.0878 37.9415 34.5693C37.3279 36.0507 36.2887 37.3169 34.9554 38.2078C33.6221 39.0986 32.0546 39.5741 30.4511 39.5741C28.3016 39.5717 26.2409 38.7167 24.721 37.1968C23.2011 35.6769 22.3462 33.6162 22.3438 31.4667Z" fill="#F49A28"/>
</svg>
