<svg width="568" height="555" viewBox="0 0 568 555" fill="none" xmlns="http://www.w3.org/2000/svg">
<path d="M7.62736 141.991C-32.0375 -1.74197 114.896 -16.3722 220.933 27.0276C282.801 49.3476 323.431 -20.0659 400.073 7.63617C476.715 35.3382 384.837 122.6 502.109 167.385C619.381 212.17 562.13 412.547 459.632 414.856C357.135 417.164 385.299 450.869 282.801 527.973C180.304 605.077 7.6276 497.962 50.5657 384.845C93.5038 271.729 50.5652 297.584 7.62736 141.991Z" stroke="#35AEEF" stroke-width="0.5"/>
<path d="M228.226 253.851C223.65 240.161 245.086 218.076 262.323 227.501C278.107 236.132 294.18 230.311 304.799 234.159C332.755 244.289 322.472 249.651 334.969 261.681C350.176 276.321 357.433 314.656 322.472 314.656C293.718 314.656 302.322 328.621 280.791 334.809C259.259 340.997 234.842 330.464 234.842 302.733C234.842 292.319 235.849 276.651 228.226 253.851Z" stroke="#35AEEF" stroke-width="0.5"/>
<path d="M27.6791 151.462C-8.79591 19.5509 126.729 4.24298 224.693 44.5542C282.372 65.6297 320.769 1.99741 391.409 27.5309C463.625 53.6354 379.165 133.451 486.912 175.259C594.905 217.303 543.518 402.95 447.16 405.049C351.367 407.147 377.753 439.057 282.616 509.714C187.479 580.371 28.2807 482.037 67.3154 376.682C106.35 272.902 67.4065 294.983 27.6791 151.462Z" stroke="#35AEEF" stroke-width="0.5"/>
<path d="M47.7309 160.933C14.4458 40.8443 138.562 24.8586 228.453 62.0812C281.942 81.9123 318.107 24.0611 382.745 47.426C450.535 71.933 373.493 144.304 471.715 183.133C570.429 222.437 524.907 393.353 434.689 395.242C345.599 397.13 370.207 427.246 282.43 491.456C194.654 555.666 48.9339 466.112 84.0651 368.52C119.196 274.076 84.2478 292.382 47.7309 160.933Z" stroke="#35AEEF" stroke-width="0.5"/>
<path d="M67.7824 170.405C37.6871 62.1381 150.394 45.4747 232.213 79.6087C281.513 98.1953 315.445 46.1253 374.081 67.3216C437.445 90.2312 367.82 155.156 456.517 191.008C545.953 227.572 506.295 383.756 422.217 385.435C339.831 387.114 362.66 415.435 282.244 473.198C201.829 530.962 69.5868 450.187 100.815 360.358C132.042 275.251 101.089 289.782 67.7824 170.405Z" stroke="#35AEEF" stroke-width="0.5"/>
<path d="M87.8346 179.877C60.9291 83.4326 162.227 66.0915 235.973 97.137C281.083 114.479 312.783 68.1902 365.417 87.2179C424.355 108.53 362.148 166.01 441.32 198.884C521.478 232.707 487.684 374.16 409.745 375.63C334.064 377.099 355.114 403.625 282.059 454.941C209.004 506.258 90.2403 434.264 117.565 352.196C144.889 276.426 117.93 287.182 87.8346 179.877Z" stroke="#35AEEF" stroke-width="0.5"/>
<path d="M107.887 189.829C84.1713 105.207 174.06 87.188 239.734 115.145C280.655 131.243 310.122 90.7348 356.754 107.594C411.266 127.309 356.477 177.343 426.124 207.24C497.003 238.322 469.073 365.044 397.274 366.303C328.296 367.563 347.569 392.295 281.874 437.164C216.18 482.033 110.894 418.82 134.315 344.514C157.736 278.081 134.772 285.062 107.887 189.829Z" stroke="#35AEEF" stroke-width="0.5"/>
<path d="M127.94 200.349C107.414 127.549 185.894 108.853 243.495 133.721C280.226 148.574 307.461 113.847 348.091 128.538C398.177 146.655 350.805 189.244 410.927 216.163C472.528 244.505 450.462 356.496 384.803 357.545C322.529 358.595 340.024 381.532 281.69 419.955C223.356 458.377 131.548 403.943 151.065 337.401C170.583 280.304 151.614 283.51 127.94 200.349Z" stroke="#35AEEF" stroke-width="0.5"/>
<path d="M147.993 210.901C130.657 149.923 197.728 130.548 247.256 152.328C279.798 165.937 304.801 136.991 339.428 149.513C385.089 166.033 345.134 201.177 395.731 225.118C448.053 250.72 431.852 347.979 372.333 348.819C316.763 349.658 332.479 370.801 281.506 402.777C230.532 434.753 152.203 389.099 167.817 330.318C183.43 282.558 168.457 281.99 147.993 210.901Z" stroke="#35AEEF" stroke-width="0.5"/>
<path d="M168.046 221.498C153.9 172.342 209.563 152.29 251.018 170.981C279.37 183.345 302.141 160.181 330.766 170.534C372 185.456 339.464 213.155 380.536 234.118C423.579 256.979 413.243 339.508 359.863 340.138C310.997 340.767 324.935 360.116 281.322 385.645C237.709 411.173 172.858 374.3 184.568 323.282C196.278 284.858 185.3 280.515 168.046 221.498Z" stroke="#35AEEF" stroke-width="0.5"/>
<path d="M188.102 232.162C177.145 194.828 221.399 174.098 254.782 189.7C278.944 200.82 299.482 183.437 322.106 191.622C358.914 204.947 333.795 225.199 365.342 243.185C399.107 263.306 394.635 331.103 347.394 331.523C305.233 331.943 317.393 349.497 281.14 368.579C244.888 387.661 193.514 359.567 201.321 316.311C209.128 287.224 202.145 279.106 188.102 232.162Z" stroke="#35AEEF" stroke-width="0.5"/>
<path d="M208.16 242.927C200.394 217.415 233.239 196.008 258.548 208.522C278.522 218.397 296.827 206.795 313.448 212.811C345.831 224.539 328.13 237.346 350.152 252.354C374.638 269.735 376.03 322.801 334.929 323.011C299.471 323.221 309.853 338.98 280.962 351.615C252.07 364.25 214.174 344.937 218.078 309.443C221.981 289.693 218.993 277.8 208.16 242.927Z" stroke="#35AEEF" stroke-width="0.5"/>
</svg>
