<svg width="715" height="698" viewBox="0 0 715 698" fill="none" xmlns="http://www.w3.org/2000/svg">
<path d="M9.34337 178.497C-40.5918 -2.45194 144.387 -20.8704 277.88 33.7669C355.767 61.8661 406.917 -25.5204 503.404 9.35446C599.891 44.2293 484.223 154.085 631.86 210.466C779.497 266.847 707.422 519.109 578.385 522.015C449.348 524.921 484.804 567.352 355.767 664.421C226.73 761.489 9.34367 626.64 63.3997 484.234C117.456 341.828 63.399 374.378 9.34337 178.497Z" stroke="#C9ECFF" stroke-width="0.5"/>
<path d="M287.062 319.321C281.3 302.086 308.287 274.283 329.987 286.149C349.858 297.014 370.093 289.686 383.461 294.53C418.656 307.283 405.71 314.033 421.443 329.179C440.588 347.609 449.723 395.87 405.71 395.87C369.511 395.87 380.342 413.452 353.236 421.242C326.13 429.032 295.39 415.772 295.39 380.86C295.39 367.75 296.658 348.025 287.062 319.321Z" stroke="#C9ECFF" stroke-width="0.5"/>
<path d="M34.5866 190.42C-11.3328 24.354 159.283 5.0824 282.613 55.8314C355.226 82.3639 403.566 2.2554 492.496 34.4002C583.411 67.2639 477.082 167.747 612.728 220.379C748.683 273.31 683.991 507.026 562.684 509.668C442.086 512.31 475.304 552.482 355.533 641.434C235.763 730.386 35.344 606.59 84.4858 473.957C133.628 343.305 84.6005 371.103 34.5866 190.42Z" stroke="#C9ECFF" stroke-width="0.5"/>
<path d="M59.831 202.344C17.9273 51.161 174.18 31.0362 287.347 77.8968C354.686 102.863 400.215 30.0322 481.59 59.4469C566.933 90.2996 469.942 181.409 593.596 230.293C717.871 279.774 660.561 494.944 546.983 497.322C434.826 499.7 465.805 537.613 355.3 618.449C244.796 699.285 61.3455 586.542 105.573 463.681C149.801 344.783 105.803 367.829 59.831 202.344Z" stroke="#C9ECFF" stroke-width="0.5"/>
<path d="M85.0745 214.268C47.1867 77.9681 189.077 56.9901 292.081 99.9624C354.145 123.362 396.864 57.8091 470.682 84.4938C550.453 113.335 462.8 195.072 574.464 240.207C687.057 286.237 637.13 482.862 531.282 484.976C427.564 487.09 456.304 522.744 355.067 595.463C253.829 668.183 87.3461 566.494 126.66 453.405C165.973 346.262 127.005 364.555 85.0745 214.268Z" stroke="#C9ECFF" stroke-width="0.5"/>
<path d="M110.319 226.194C76.4472 104.777 203.974 82.9457 296.815 122.03C353.606 143.862 393.514 85.5877 459.776 109.542C533.975 136.373 455.66 208.736 555.332 250.122C656.245 292.703 613.701 470.782 515.582 472.632C420.304 474.481 446.805 507.876 354.834 572.48C262.863 637.083 113.348 546.448 147.747 443.131C182.146 347.742 148.208 361.283 110.319 226.194Z" stroke="#C9ECFF" stroke-width="0.5"/>
<path d="M135.563 238.722C105.707 132.189 218.871 109.505 301.549 144.7C353.065 164.966 390.163 113.97 448.869 135.194C517.496 160.014 448.52 223.003 536.2 260.641C625.432 299.772 590.271 459.306 499.881 460.891C413.043 462.476 437.306 493.612 354.601 550.099C271.896 606.587 139.349 527.005 168.834 433.46C198.319 349.825 169.41 358.614 135.563 238.722Z" stroke="#C9ECFF" stroke-width="0.5"/>
<path d="M160.808 251.966C134.967 160.316 233.768 136.778 306.283 168.086C352.525 186.785 386.813 143.067 437.962 161.561C501.017 184.369 441.379 237.986 517.069 271.875C594.619 307.555 566.841 448.544 484.18 449.865C405.782 451.186 427.807 480.063 354.368 528.434C280.93 576.805 165.351 508.277 189.921 424.504C214.492 352.623 190.613 356.66 160.808 251.966Z" stroke="#C9ECFF" stroke-width="0.5"/>
<path d="M186.053 265.25C164.228 188.483 248.666 164.093 311.018 191.512C351.986 208.644 383.463 172.204 427.056 187.968C484.539 208.765 434.24 253.008 497.938 283.149C563.807 315.379 543.412 437.822 468.481 438.879C398.522 439.936 418.308 466.554 354.136 506.809C289.964 547.064 191.353 489.589 211.009 415.589C230.666 355.462 211.816 354.746 186.053 265.25Z" stroke="#C9ECFF" stroke-width="0.5"/>
<path d="M211.299 278.591C193.49 216.707 263.565 191.463 315.754 214.994C351.448 230.559 380.114 201.397 416.151 214.432C468.062 233.217 427.101 268.087 478.808 294.479C532.996 323.26 519.983 427.157 452.782 427.95C391.263 428.743 408.81 453.101 353.905 485.24C299 517.379 217.356 470.958 232.098 406.729C246.841 358.357 233.02 352.889 211.299 278.591Z" stroke="#C9ECFF" stroke-width="0.5"/>
<path d="M236.548 292.016C222.755 245.015 278.467 218.918 320.493 238.56C350.912 252.559 376.768 230.675 405.249 240.979C451.588 257.754 419.965 283.251 459.681 305.894C502.188 331.224 496.558 416.576 437.086 417.105C384.007 417.633 399.316 439.733 353.677 463.755C308.038 487.778 243.362 452.41 253.19 397.954C263.019 361.336 254.227 351.116 236.548 292.016Z" stroke="#C9ECFF" stroke-width="0.5"/>
<path d="M261.799 305.569C252.022 273.452 293.371 246.501 325.234 262.255C350.379 274.688 373.425 260.081 394.35 267.656C435.117 282.419 412.832 298.543 440.557 317.437C471.383 339.318 473.135 406.124 421.393 406.388C376.754 406.653 389.824 426.493 353.451 442.4C317.079 458.306 269.371 433.992 274.285 389.308C279.199 364.444 275.437 349.471 261.799 305.569Z" stroke="#C9ECFF" stroke-width="0.5"/>
</svg>
