<svg width="40" height="30" viewBox="0 0 40 30" fill="none" xmlns="http://www.w3.org/2000/svg">
<rect width="40" height="30" rx="15" fill="#C9ECFF"/>
<path d="M22.464 18.88V20H17.438V18.88H19.426V13.42C19.342 13.532 19.2113 13.6533 19.034 13.784C18.8567 13.9053 18.656 14.022 18.432 14.134C18.208 14.246 17.984 14.3393 17.76 14.414C17.536 14.4793 17.3307 14.512 17.144 14.512V13.336C17.3493 13.336 17.5733 13.28 17.816 13.168C18.068 13.0467 18.3107 12.9067 18.544 12.748C18.7773 12.5893 18.9733 12.44 19.132 12.3C19.3 12.16 19.398 12.062 19.426 12.006H20.686V18.88H22.464Z" fill="#20709B"/>
</svg>
